<svg width="224" height="194" viewBox="0 0 224 194" fill="none" xmlns="http://www.w3.org/2000/svg">
<circle opacity="0.4" cx="97" cy="97" r="97" fill="white"/>
<g clip-path="url(#clip0_14_453)">
<path d="M147.734 59.0422H142.276C141.998 59.0419 141.731 58.9313 141.534 58.7347C141.338 58.5381 141.227 58.2716 141.227 57.9936V52.5411C141.227 52.2631 141.338 51.9966 141.534 51.8C141.731 51.6034 141.998 51.4929 142.276 51.4926H147.734C148.012 51.4929 148.279 51.6034 148.476 51.8C148.673 51.9966 148.783 52.2631 148.784 52.5411V57.9936C148.783 58.2716 148.673 58.5381 148.476 58.7347C148.279 58.9313 148.012 59.0419 147.734 59.0422ZM142.276 51.912C142.109 51.9122 141.949 51.9785 141.831 52.0964C141.713 52.2144 141.647 52.3743 141.646 52.5411V57.9936C141.647 58.1604 141.713 58.3203 141.831 58.4383C141.949 58.5562 142.109 58.6226 142.276 58.6228H147.734C147.901 58.6226 148.061 58.5562 148.179 58.4383C148.297 58.3203 148.364 58.1604 148.364 57.9936V52.5411C148.364 52.3743 148.297 52.2144 148.179 52.0964C148.061 51.9785 147.901 51.9122 147.734 51.912H142.276Z" fill="#E6E6E6"/>
<path d="M84.1285 26.5368H78.6706C78.3923 26.5365 78.1255 26.4259 77.9287 26.2293C77.732 26.0328 77.6213 25.7662 77.621 25.4882V20.0357C77.6213 19.7577 77.732 19.4912 77.9287 19.2946C78.1255 19.0981 78.3923 18.9875 78.6706 18.9872H84.1285C84.4067 18.9875 84.6735 19.0981 84.8703 19.2946C85.0671 19.4912 85.1778 19.7577 85.1781 20.0357V25.4882C85.1778 25.7662 85.0671 26.0328 84.8703 26.2293C84.6735 26.4259 84.4067 26.5365 84.1285 26.5368ZM78.6706 19.4066C78.5036 19.4068 78.3435 19.4731 78.2255 19.5911C78.1074 19.709 78.041 19.8689 78.0408 20.0357V25.4882C78.041 25.655 78.1074 25.815 78.2255 25.9329C78.3435 26.0509 78.5036 26.1172 78.6706 26.1174H84.1285C84.2954 26.1172 84.4555 26.0509 84.5736 25.9329C84.6916 25.815 84.7581 25.655 84.7582 25.4882V20.0357C84.7581 19.8689 84.6916 19.709 84.5736 19.5911C84.4555 19.4731 84.2954 19.4068 84.1285 19.4066H78.6706Z" fill="#E6E6E6"/>
<path d="M144.375 56.3159H138.917C138.639 56.3155 138.372 56.205 138.176 56.0084C137.979 55.8118 137.868 55.5453 137.868 55.2673V49.8148C137.868 49.5368 137.979 49.2703 138.176 49.0737C138.372 48.8771 138.639 48.7666 138.917 48.7662H144.375C144.654 48.7666 144.92 48.8771 145.117 49.0737C145.314 49.2703 145.425 49.5368 145.425 49.8148V55.2673C145.425 55.5453 145.314 55.8118 145.117 56.0084C144.92 56.205 144.654 56.3155 144.375 56.3159ZM138.917 49.1857C138.75 49.1858 138.59 49.2522 138.472 49.3701C138.354 49.4881 138.288 49.648 138.288 49.8148V55.2673C138.288 55.4341 138.354 55.594 138.472 55.712C138.59 55.8299 138.75 55.8963 138.917 55.8964H144.375C144.542 55.8963 144.702 55.8299 144.82 55.712C144.939 55.594 145.005 55.4341 145.005 55.2673V49.8148C145.005 49.648 144.939 49.4881 144.82 49.3701C144.702 49.2522 144.542 49.1858 144.375 49.1857H138.917Z" fill="#E6E6E6"/>
<path d="M49.4918 101.823H44.0339C43.7556 101.823 43.4888 101.712 43.292 101.516C43.0953 101.319 42.9846 101.053 42.9843 100.775V95.3222C42.9846 95.0442 43.0953 94.7777 43.292 94.5812C43.4888 94.3846 43.7556 94.274 44.0339 94.2737H49.4918C49.77 94.274 50.0368 94.3846 50.2336 94.5812C50.4304 94.7777 50.541 95.0442 50.5414 95.3222V100.775C50.541 101.053 50.4304 101.319 50.2336 101.516C50.0368 101.712 49.77 101.823 49.4918 101.823ZM44.0339 94.6931C43.8669 94.6933 43.7068 94.7596 43.5887 94.8776C43.4707 94.9955 43.4043 95.1554 43.4041 95.3222V100.775C43.4043 100.942 43.4707 101.101 43.5887 101.219C43.7068 101.337 43.8669 101.404 44.0339 101.404H49.4918C49.6587 101.404 49.8188 101.337 49.9369 101.219C50.0549 101.101 50.1213 100.942 50.1215 100.775V95.3222C50.1213 95.1554 50.0549 94.9955 49.9369 94.8776C49.8188 94.7596 49.6587 94.6933 49.4918 94.6931H44.0339Z" fill="#E6E6E6"/>
<path d="M46.1331 99.0971H40.6751C40.3969 99.0968 40.1301 98.9862 39.9333 98.7896C39.7366 98.5931 39.6259 98.3265 39.6255 98.0485V92.596C39.6259 92.318 39.7366 92.0515 39.9333 91.855C40.1301 91.6584 40.3969 91.5478 40.6751 91.5475H46.1331C46.4113 91.5478 46.6781 91.6584 46.8749 91.855C47.0716 92.0515 47.1823 92.318 47.1827 92.596V98.0485C47.1823 98.3265 47.0716 98.5931 46.8749 98.7896C46.6781 98.9862 46.4113 99.0968 46.1331 99.0971ZM40.6751 91.9669C40.5082 91.9671 40.3481 92.0334 40.23 92.1514C40.112 92.2693 40.0456 92.4292 40.0454 92.596V98.0485C40.0456 98.2154 40.112 98.3753 40.23 98.4932C40.3481 98.6112 40.5082 98.6775 40.6751 98.6777H46.1331C46.3 98.6775 46.4601 98.6112 46.5782 98.4932C46.6962 98.3753 46.7626 98.2154 46.7628 98.0485V92.596C46.7626 92.4292 46.6962 92.2693 46.5782 92.1514C46.4601 92.0334 46.3 91.9671 46.1331 91.9669H40.6751Z" fill="#E6E6E6"/>
<path d="M59.0283 37.0305H109.538C111.976 37.0305 114.34 37.8589 116.244 39.3796C118.148 40.9003 119.477 43.0228 120.013 45.3981L145.534 158.489C145.813 159.722 145.818 161.002 145.549 162.237C145.28 163.473 144.744 164.635 143.978 165.642C143.212 166.648 142.235 167.475 141.115 168.065C139.995 168.655 138.76 168.992 137.496 169.055L85.5712 171.61C82.7908 171.747 80.0555 170.869 77.8758 169.139C75.6961 167.409 74.2208 164.946 73.7253 162.21L59.2479 82.2531L58.1708 82.5606L55.4007 67.4058L56.5094 67.1289L52.4682 44.8103C52.2952 43.8543 52.3353 42.872 52.5858 41.9333C52.8363 40.9946 53.291 40.1227 53.9175 39.3797C54.544 38.6367 55.3269 38.041 56.2103 37.6349C57.0937 37.2288 58.0559 37.0225 59.0283 37.0305Z" fill="#3F3D56"/>
<path d="M102.889 39.4684H108.785C110.478 39.4684 112.12 40.0469 113.439 41.1079C114.758 42.1689 115.674 43.6485 116.034 45.3012L140.532 157.469C140.673 158.115 140.673 158.784 140.531 159.429C140.39 160.075 140.111 160.683 139.713 161.211C139.315 161.739 138.808 162.175 138.226 162.489C137.644 162.804 137 162.989 136.34 163.032L84.5836 166.421C83.1235 166.516 81.6792 166.071 80.5265 165.171C79.3737 164.271 78.5932 162.978 78.3338 161.539L57.4301 45.6025C57.2948 44.8521 57.326 44.0812 57.5215 43.3442C57.717 42.6071 58.072 41.922 58.5615 41.337C59.051 40.752 59.6631 40.2815 60.3545 39.9586C61.0459 39.6357 61.7999 39.4684 62.5631 39.4684H68.1564C68.6977 39.4684 69.224 39.6467 69.6537 39.9757C70.0834 40.3046 70.3925 40.7659 70.5332 41.2882C70.6575 41.7492 70.9304 42.1564 71.3097 42.4469C71.6891 42.7373 72.1537 42.8947 72.6316 42.8947H99.185C100.121 42.8947 101.022 42.5418 101.709 41.9065C102.395 41.2713 102.817 40.4006 102.889 39.4684Z" fill="white"/>
<path d="M61.4572 58.54H117.606L123.587 85.4658L66.7051 86.5143L61.4572 58.54Z" fill="#34498B"/>
<path d="M114.777 109.531H127.996L128.415 112.059H115.197L114.777 109.531Z" fill="#34498B"/>
<path d="M125.532 96.6343L69.4698 97.8203L69.4754 98.0839L125.538 96.8979L125.532 96.6343Z" fill="#2F2E41"/>
<path d="M127.247 104.409L70.1292 105.727L70.1352 105.991L127.253 104.673L127.247 104.409Z" fill="#2F2E41"/>
<path d="M120.235 136.584H133.453L133.873 139.112H120.654L120.235 136.584Z" fill="#34498B"/>
<path d="M130.99 123.687L74.9277 124.873L74.9333 125.137L130.995 123.951L130.99 123.687Z" fill="#2F2E41"/>
<path d="M132.704 131.462L75.587 132.78L75.5931 133.043L132.711 131.726L132.704 131.462Z" fill="#2F2E41"/>
<path d="M168.844 172.33L166.342 172.33L165.153 162.692L168.844 162.692L168.844 172.33Z" fill="#A0616A"/>
<path d="M169.481 174.752L161.417 174.752V174.65C161.417 173.818 161.747 173.021 162.336 172.432C162.925 171.844 163.723 171.514 164.556 171.514L169.482 171.514L169.481 174.752Z" fill="#2F2E41"/>
<path d="M199.915 170.694L197.481 171.266L194.111 162.158L197.704 161.312L199.915 170.694Z" fill="#A0616A"/>
<path d="M201.092 172.905L193.242 174.752L193.218 174.653C193.027 173.843 193.166 172.991 193.604 172.284C194.042 171.577 194.744 171.072 195.554 170.881L200.349 169.754L201.092 172.905Z" fill="#2F2E41"/>
<path d="M168.332 131.679C168.337 131.177 168.486 119.324 171.738 114.842L171.787 114.776L183.12 116.338L182.867 118.826C183.366 119.31 187.287 123.404 188.419 133.098L200.449 165.375L194.857 165.883L178.301 130.648L169.54 168.949H163.996L168.332 131.679Z" fill="#2F2E41"/>
<path d="M170.411 115.279L171.519 109.469C171.302 109.19 170.341 107.85 170.555 106.28C170.694 105.256 171.306 104.358 172.374 103.61L175.246 96.9158L175.285 96.8932C175.478 96.7793 180.05 94.138 182.543 96.63C182.605 96.6783 188.743 101.545 186.278 108.111L183.236 117.23L170.411 115.279Z" fill="#CCCCCC"/>
<path d="M166.556 123.141C166.855 123.107 167.142 123.008 167.399 122.851C167.655 122.693 167.874 122.482 168.039 122.231C168.205 121.981 168.313 121.697 168.357 121.399C168.401 121.102 168.379 120.799 168.293 120.511L174.224 116.243L170.673 114.894L165.586 119.154C165.112 119.33 164.719 119.675 164.481 120.121C164.244 120.568 164.179 121.086 164.298 121.578C164.418 122.069 164.714 122.5 165.13 122.788C165.546 123.076 166.053 123.202 166.556 123.141Z" fill="#A0616A"/>
<path d="M167.646 116.236L176.7 109.11L174.008 99.9224C173.881 99.4874 173.845 99.0309 173.903 98.5814C173.96 98.132 174.11 97.6991 174.342 97.3099C174.557 96.9429 174.846 96.6248 175.191 96.3759C175.536 96.1271 175.929 95.953 176.346 95.8648C177.896 95.5372 179.303 96.4042 180.527 98.4421L180.536 98.4605C180.739 98.9551 185.455 110.603 181.854 113.094C178.331 115.531 170.161 119.078 170.079 119.113L169.983 119.155L167.646 116.236Z" fill="#CCCCCC"/>
<path d="M179.679 94.2073C182.708 94.2073 185.164 91.7542 185.164 88.7281C185.164 85.7019 182.708 83.2488 179.679 83.2488C176.65 83.2488 174.194 85.7019 174.194 88.7281C174.194 91.7542 176.65 94.2073 179.679 94.2073Z" fill="#A0616A"/>
<path d="M188.278 86.7721C190.957 86.7721 193.13 84.6019 193.13 81.9247C193.13 79.2476 190.957 77.0774 188.278 77.0774C185.598 77.0774 183.426 79.2476 183.426 81.9247C183.426 84.6019 185.598 86.7721 188.278 86.7721Z" fill="#2F2E41"/>
<path d="M192.463 85.9386C191.835 86.3921 191.107 86.6887 190.341 86.8037C189.575 86.9186 188.792 86.8486 188.058 86.5994C187.325 86.3501 186.662 85.929 186.124 85.3713C185.587 84.8135 185.191 84.1353 184.97 83.3934C185.054 84.0582 185.274 84.6986 185.618 85.2739C185.962 85.8492 186.422 86.3471 186.968 86.736C187.514 87.125 188.135 87.3966 188.792 87.5337C189.448 87.6707 190.126 87.6703 190.783 87.5325C191.439 87.3946 192.06 87.1223 192.606 86.7327C193.151 86.3431 193.61 85.8447 193.954 85.269C194.297 84.6932 194.517 84.0526 194.6 83.3877C194.683 82.7227 194.627 82.0478 194.435 81.4055C194.544 82.2684 194.418 83.1446 194.071 83.9422C193.724 84.7398 193.169 85.4294 192.463 85.9386Z" fill="#2F2E41"/>
<path d="M173.314 85.944C174.161 84.429 174.485 83.7962 175.578 82.8749C176.543 82.0602 177.731 81.8209 178.69 82.5929C179.823 82.1036 181.084 81.9927 182.286 82.2765C183.488 82.5604 184.566 83.224 185.36 84.1686C186.154 85.1133 186.622 86.2887 186.694 87.5202C186.766 88.7517 186.439 89.9736 185.761 91.0044C185.083 92.0353 184.089 92.82 182.929 93.2422C181.769 93.6643 180.503 93.7013 179.32 93.3476C178.137 92.9939 177.1 92.2684 176.363 91.2789C175.625 90.2894 175.227 89.0887 175.227 87.855C175.228 87.6384 175.241 87.422 175.266 87.2068C174.433 87.09 174.147 86.0608 173.314 85.944Z" fill="#2F2E41"/>
<path d="M223.509 175.013H143.53C143.474 175.013 143.421 174.991 143.381 174.951C143.342 174.912 143.32 174.859 143.32 174.803C143.32 174.747 143.342 174.694 143.381 174.655C143.421 174.615 143.474 174.593 143.53 174.593H223.509C223.565 174.593 223.618 174.615 223.658 174.655C223.697 174.694 223.719 174.747 223.719 174.803C223.719 174.859 223.697 174.912 223.658 174.951C223.618 174.991 223.565 175.013 223.509 175.013Z" fill="#3F3D56"/>
</g>
<defs>
<clipPath id="clip0_14_453">
<rect width="184.094" height="156.026" fill="white" transform="translate(39.6255 18.9872)"/>
</clipPath>
</defs>
</svg>
