<svg width="279" height="236" viewBox="0 0 279 236" fill="none" xmlns="http://www.w3.org/2000/svg">
<circle opacity="0.4" cx="132.5" cy="117.5" r="117.5" fill="white"/>
<path d="M148.053 204.144H122.761V195.3H123.608V203.297H147.206V196.106H148.053V204.144Z" fill="#6A6A6A"/>
<path d="M148.021 196.466H120.297C119.76 196.466 119.323 196.029 119.323 195.49V193.8H148.021V196.466Z" fill="#6A6A6A"/>
<path d="M147.282 225.627H135.834V184.038H133.29V225.627H122.14C120.582 225.627 119.323 225.321 119.323 226.877H133.29H135.834H150.099C150.099 225.321 148.84 225.627 147.282 225.627Z" fill="#2F2F2F"/>
<path d="M110.377 147.248H136.688L147.219 192.37L117.068 189.226L110.377 147.248Z" fill="#485891"/>
<path d="M151.393 190.347C151.393 190.347 133.242 189.727 122.924 189.727C119.806 189.727 119.269 185.009 118.965 183.372L113.18 149.175C112.934 147.84 111.63 146.967 110.292 147.264C109.019 147.546 108.225 148.823 108.461 150.104L115.467 190.9C115.547 191.336 115.742 191.721 116.013 192.035C116.682 193.276 117.995 194.122 119.504 194.122L152.617 194.63C154.806 194.63 154.163 192.706 154.163 190.517C154.163 188.33 153.582 190.347 151.393 190.347Z" fill="#3E3E3E"/>
<path d="M139.549 194.348H139.547L120.818 194.314C115.772 194.769 115.172 190.452 115.142 190.214L114.03 184.187C114.011 184.081 114.08 183.98 114.185 183.961C114.289 183.941 114.39 184.011 114.41 184.116L115.527 190.167C115.543 190.338 116.009 194.366 120.793 193.928H120.81L139.549 193.962C139.655 193.962 139.742 194.048 139.74 194.155C139.74 194.262 139.655 194.348 139.549 194.348Z" fill="#232323"/>
<path d="M120.515 147.439L111.308 147.427C111.2 147.427 111.115 147.34 111.115 147.233C111.115 147.126 111.2 147.04 111.308 147.04L120.515 147.054C120.623 147.054 120.708 147.14 120.708 147.247C120.708 147.354 120.623 147.439 120.515 147.439Z" fill="#232323"/>
<path d="M136.676 107.31L136.707 107.145C136.997 106.939 137.551 106.49 138.229 106C138.676 106.546 139.035 106.955 139.109 106.91L139.192 107.042C139.212 107.075 139.245 107.097 139.281 107.106C139.668 107.711 140.142 108.491 140.581 109.118C140.893 109.564 141.305 109.84 141.129 110.335C141.028 110.62 139.966 111.453 139.567 111.721L137.066 113.741C136.549 112.942 133.891 109.716 133.941 109.507L136.676 107.31Z" fill="#FFD7BA"/>
<path d="M132.395 99.4342L135.069 97.8889V97.8905C135.176 97.8384 135.309 97.8766 135.369 97.982C135.43 98.0872 135.398 98.2199 135.297 98.2874L135.299 98.2878L135.293 98.2904L135.285 98.2977L135.273 98.3025L133.647 99.2424L133.829 99.557L135.456 98.6167L135.466 98.6101L135.476 98.6054L135.481 98.6024V98.603C135.588 98.5509 135.719 98.5891 135.781 98.6945C135.842 98.7999 135.81 98.9324 135.711 99V99.0006L135.707 99.0032L135.695 99.0101L135.685 99.0152L134.059 99.955L134.241 100.27L135.868 99.3292L135.878 99.3227L135.888 99.3179L135.891 99.3151V99.3155C136 99.2634 136.131 99.3017 136.193 99.4071C136.254 99.5124 136.22 99.6452 136.121 99.7125L136.123 99.7131L136.117 99.7155L136.107 99.7226L136.098 99.7278L134.471 100.668L134.651 100.982L136.28 100.042L136.288 100.035L136.298 100.03L136.306 100.028V100.028C136.412 99.9762 136.543 100.014 136.605 100.12C136.666 100.225 136.632 100.357 136.533 100.425V100.425L136.531 100.428L136.519 100.435L136.508 100.44L134.883 101.38L135.065 101.695L136.692 100.754L136.7 100.748L136.712 100.743L136.716 100.74V100.741C136.824 100.689 136.955 100.727 137.017 100.832C137.076 100.938 137.044 101.07 136.945 101.138V101.138L136.941 101.141L136.931 101.148L136.922 101.153L135.293 102.093L135.476 102.407L137.102 101.467L137.112 101.46L137.122 101.456L137.128 101.453L137.13 101.453C137.237 101.401 137.367 101.439 137.427 101.545C137.488 101.65 137.456 101.783 137.357 101.85V101.851L137.353 101.853L137.343 101.86L137.332 101.865L135.707 102.805L135.888 103.12L137.516 102.179L137.524 102.173L137.536 102.168L137.54 102.165V102.166C137.649 102.114 137.779 102.152 137.841 102.257C137.9 102.363 137.868 102.495 137.769 102.563V102.563L137.765 102.566L137.756 102.573L137.746 102.578L136.117 103.518L136.3 103.832L137.926 102.892L137.936 102.885L137.946 102.881L137.952 102.878V102.878C138.059 102.826 138.191 102.865 138.251 102.97C138.312 103.075 138.28 103.208 138.181 103.275V103.276L138.177 103.278L138.168 103.285L138.156 103.29L136.531 104.23L136.712 104.545L138.34 103.604L138.348 103.598L138.358 103.593L138.364 103.59V103.591C138.473 103.539 138.601 103.577 138.665 103.682C138.724 103.788 138.692 103.92 138.593 103.988V103.988L138.589 103.991L138.58 103.998L138.568 104.003L136.941 104.943L137.124 105.257L138.75 104.317L138.76 104.31L138.77 104.306L138.776 104.303V104.303C138.883 104.251 139.015 104.289 139.075 104.395C139.136 104.5 139.104 104.633 139.003 104.7L139.005 104.702L136.941 105.894C136.941 105.894 136.678 106.047 136.844 106.378L140.715 113.074L140.174 113.387L132.304 99.7709C132.237 99.6531 132.276 99.5023 132.395 99.4342Z" fill="#6A6A6A"/>
<path d="M139.873 107.058C140.124 107.366 140.051 107.686 140.004 107.73L138.46 109.075C138.274 109.238 137.948 109.182 137.72 108.931C137.471 108.655 137.437 108.275 137.639 108.1L139.173 106.76C139.173 106.76 139.62 106.75 139.873 107.058Z" fill="#FFD7BA"/>
<path d="M140.608 107.931C140.863 108.235 140.917 108.602 140.867 108.647L139.244 110.141C139.059 110.309 138.736 110.26 138.504 110.013C138.253 109.741 138.211 109.36 138.407 109.179L140.074 107.646C140.074 107.646 140.352 107.627 140.608 107.931Z" fill="#FFD7BA"/>
<path d="M140.202 107.696C140.225 107.661 140.216 107.604 140.18 107.56C140.138 107.509 140.075 107.494 140.038 107.525L138.384 108.983C138.228 109.119 137.961 109.069 137.781 108.868C137.684 108.76 137.623 108.63 137.611 108.501C137.599 108.372 137.634 108.262 137.714 108.193L139.235 106.867C139.27 106.835 139.266 106.768 139.225 106.717C139.181 106.666 139.118 106.65 139.082 106.682L137.561 108.008C137.447 108.108 137.391 108.272 137.411 108.458C137.429 108.647 137.518 108.837 137.658 108.994C137.925 109.289 138.309 109.365 138.536 109.168L140.19 107.71L140.202 107.696Z" fill="#6A6A6A"/>
<path d="M138.888 106.082C139.15 106.382 139.194 106.754 139.144 106.798L137.508 108.275C137.327 108.438 137.009 108.396 136.78 108.157C136.518 107.883 136.473 107.492 136.676 107.31L138.202 105.932C138.371 105.778 138.738 105.908 138.888 106.082Z" fill="#FFD7BA"/>
<path d="M139.226 106.869C139.246 106.833 139.236 106.776 139.201 106.732C139.159 106.682 139.094 106.667 139.059 106.7L137.428 108.185C137.274 108.324 137.01 108.277 136.827 108.078C136.728 107.971 136.667 107.841 136.653 107.712C136.637 107.583 136.673 107.473 136.752 107.402L138.25 106.05C138.286 106.017 138.28 105.95 138.239 105.899C138.195 105.849 138.132 105.834 138.097 105.866L136.598 107.218C136.486 107.32 136.432 107.485 136.452 107.672C136.474 107.861 136.564 108.051 136.706 108.207C136.975 108.499 137.361 108.57 137.582 108.369L139.213 106.883L139.226 106.869Z" fill="#6A6A6A"/>
<path d="M140.859 108.723C140.883 108.687 140.873 108.629 140.836 108.584C140.792 108.534 140.729 108.521 140.693 108.554L139.135 110.042C138.983 110.183 138.747 110.145 138.562 109.948C138.465 109.842 138.402 109.712 138.386 109.583C138.372 109.453 138.406 109.343 138.485 109.271L140.152 107.738C140.188 107.706 140.182 107.638 140.138 107.588C140.096 107.537 140.033 107.523 139.997 107.555L138.328 109.088C138.217 109.191 138.166 109.357 138.186 109.544C138.208 109.734 138.301 109.923 138.443 110.078C138.713 110.367 139.07 110.428 139.292 110.224L140.85 108.735L140.859 108.723Z" fill="#6A6A6A"/>
<path d="M135.397 109.519C135.561 109.9 135.889 110.111 135.952 110.085L138.08 109.223C138.314 109.128 138.42 108.812 138.3 108.487C138.165 108.116 137.817 107.897 137.555 108.004L135.568 108.808C135.346 108.897 135.303 109.298 135.397 109.519Z" fill="#FFD7BA"/>
<path d="M136.151 110.533C136.11 110.537 136.061 110.503 136.037 110.448C136.007 110.385 136.023 110.319 136.07 110.3L138.032 109.108C138.231 109.027 138.307 108.758 138.205 108.495C138.148 108.355 138.056 108.237 137.941 108.166C137.827 108.093 137.707 108.076 137.605 108.118L135.657 108.907C135.61 108.925 135.549 108.89 135.519 108.827C135.492 108.765 135.508 108.698 135.553 108.679L137.503 107.89C137.65 107.83 137.829 107.856 137.995 107.96C138.162 108.065 138.3 108.236 138.38 108.442C138.532 108.826 138.422 109.218 138.134 109.336L136.171 110.528L136.151 110.533Z" fill="#6A6A6A"/>
<path d="M141.262 109.036C141.502 109.317 141.555 109.659 141.512 109.702L140.018 111.119C139.851 111.278 139.548 111.236 139.331 111.008C139.095 110.757 139.051 110.401 139.234 110.229L140.763 108.776C140.763 108.776 141.021 108.755 141.262 109.036Z" fill="#FFD7BA"/>
<path d="M141.534 109.729C141.556 109.693 141.546 109.634 141.508 109.59C141.466 109.54 141.401 109.526 141.367 109.56L139.873 110.977C139.734 111.108 139.494 111.07 139.323 110.89C139.232 110.794 139.174 110.676 139.158 110.557C139.144 110.438 139.174 110.336 139.246 110.269L140.775 108.815C140.811 108.783 140.805 108.715 140.761 108.664C140.717 108.614 140.654 108.6 140.62 108.634L139.089 110.087C138.986 110.186 138.938 110.344 138.96 110.52C138.982 110.699 139.071 110.878 139.206 111.022C139.464 111.293 139.826 111.353 140.03 111.158L141.524 109.741L141.534 109.729Z" fill="#6A6A6A"/>
<path d="M99.8679 113.386C99.8679 113.386 110.607 123.506 113.746 124.803C116.884 126.101 130.456 119.047 137.599 114.054L134.154 108.755C134.154 108.755 117.245 116.057 115.945 114.956C113.785 113.127 111.574 110.802 111.574 110.802L99.8679 113.386Z" fill="white"/>
<path d="M97.9808 231.824L89.9475 231.936L89.822 223.405L97.821 222.291L97.9808 231.824Z" fill="#FFD7BA"/>
<path d="M66.292 230.908L58.9067 230.257L60.2863 221.662L68.5143 221.498L66.292 230.908Z" fill="#FFD7BA"/>
<path d="M75.0959 133.244C75.0959 133.244 72.2477 140.845 69.2414 153.263C66.2352 165.681 58.6909 225.76 58.6909 225.76C58.6909 225.76 63.7882 227.461 68.3644 226.414L83.2653 176.087L88.2323 184.845V225.518C88.2323 225.518 95.0298 227.983 99.6043 225.892C99.6043 225.892 100.65 189.682 100.782 179.487C100.912 169.291 87.1868 133.244 87.1868 133.244C87.1868 133.244 78.8211 129.486 75.0959 133.244Z" fill="#2F2E2E"/>
<path d="M89.7519 232.153H96.8393L99.7146 229.022L104.971 232.153H106.102C106.493 232.153 106.85 232.416 106.923 232.799C107.023 233.315 106.631 233.765 106.133 233.765H89.6502C89.5288 233.765 89.4307 233.668 89.4307 233.546V232.473C89.4307 232.295 89.5752 232.153 89.7519 232.153Z" fill="white"/>
<path d="M89.8147 232.162V229.252C89.8147 229.252 91.0085 227.645 92.8269 228.465C92.8269 228.465 95.5758 230.416 97.999 228.055L104.018 230.724C104.018 230.724 105.667 231.277 106.114 232.162H89.8147Z" fill="#6A6A6A"/>
<path d="M89.7555 232.147H89.8764V229.252H89.7555V232.147Z" fill="#232323"/>
<path d="M91.2806 231.618L91.3482 231.518L90.5782 230.999L90.5106 231.099L91.2806 231.618Z" fill="#232323"/>
<path d="M91.8324 231.471L91.9 231.372L91.1302 230.853L91.0625 230.953L91.8324 231.471Z" fill="#232323"/>
<path d="M106.693 233.625C106.888 233.46 107 233.219 107 232.965C107 232.486 106.611 232.097 106.133 232.097H89.8353C89.5801 232.097 89.3713 232.306 89.3713 232.563V233.367H89.4927V232.563C89.4927 232.372 89.6462 232.218 89.8353 232.218H106.133C106.545 232.218 106.879 232.554 106.879 232.965C106.879 233.184 106.784 233.392 106.616 233.534L106.693 233.625Z" fill="#232323"/>
<path d="M106.078 232.184L106.188 232.132C106.174 232.103 105.845 231.427 104.611 230.902C103.401 230.386 98.0781 228.023 98.023 228L97.9731 228.11C98.0283 228.134 103.353 230.496 104.565 231.012C105.75 231.518 106.076 232.177 106.078 232.184Z" fill="#232323"/>
<path d="M58.3799 232.153H65.4689L68.343 229.022L73.5993 232.153H74.7314C75.1215 232.153 75.4798 232.416 75.553 232.799C75.6518 233.315 75.2585 233.765 74.7616 233.765H58.2796C58.1585 233.765 58.0598 233.668 58.0598 233.546V232.473C58.0598 232.295 58.2031 232.153 58.3799 232.153Z" fill="white"/>
<path d="M58.4436 232.161V229.252C58.4436 229.252 59.6368 227.644 61.4552 228.464C61.4552 228.464 64.2035 230.415 66.6264 228.054L72.6465 230.724C72.6465 230.724 74.2967 231.277 74.7426 232.161H58.4436Z" fill="#6A6A6A"/>
<path d="M58.3823 232.147H58.5028V229.252H58.3823V232.147Z" fill="#232323"/>
<path d="M59.9072 231.618L59.9745 231.518L59.2055 230.999L59.1382 231.099L59.9072 231.618Z" fill="#232323"/>
<path d="M60.459 231.472L60.5264 231.372L59.7572 230.853L59.6897 230.953L60.459 231.472Z" fill="#232323"/>
<path d="M75.3229 233.625C75.5171 233.46 75.6286 233.219 75.6286 232.965C75.6286 232.486 75.2401 232.097 74.7624 232.097H58.4649C58.2086 232.097 58 232.306 58 232.562V233.367H58.121V232.562C58.121 232.372 58.2754 232.217 58.4649 232.217H74.7624C75.1732 232.217 75.5076 232.553 75.5076 232.965C75.5076 233.184 75.4121 233.391 75.2449 233.534L75.3229 233.625Z" fill="#232323"/>
<path d="M74.705 232.184L74.8145 232.132C74.8002 232.103 74.4701 231.427 73.2384 230.902C72.0274 230.386 66.704 228.023 66.65 228L66.6008 228.11C66.6548 228.134 71.9798 230.496 73.1908 231.012C74.3764 231.518 74.7018 232.177 74.705 232.184Z" fill="#232323"/>
<path d="M89.6226 99.4857L98.7401 100.793L101.045 105.891L101.339 115.009C101.339 115.009 95.7015 118.636 95.4806 118.293C95.2597 117.95 88.986 112.901 88.986 112.313C88.986 111.724 89.6226 99.4857 89.6226 99.4857Z" fill="white"/>
<path d="M100.917 101.661C100.917 101.661 107.085 105.794 112.768 112.085C112.768 112.085 113.108 115.861 106.833 117.83C100.56 119.798 100.917 101.661 100.917 101.661Z" fill="white"/>
<path d="M87.6629 99.4856C87.6629 99.4856 86.8627 123.081 84.5093 126.152C82.1559 129.224 75.0974 130.858 75.0974 130.858V133.243H78.1037L72.9072 185.205C72.9072 185.205 93.593 188.833 103.3 185.205C103.3 185.205 103.888 119.715 103.3 113.44C102.71 107.165 100.918 101.661 100.918 101.661L98.7403 100.793C98.7403 100.793 100.899 107.852 100.651 113.391C100.651 113.391 94.3283 114.469 90.2112 112.509C90.2112 112.509 90.4077 102.002 89.6232 99.4856H87.6629Z" fill="#34498B"/>
<path d="M75.0969 130.858C75.0969 130.858 75.6519 107.214 77.4172 103.685C79.1808 100.156 86.7801 104.175 86.7801 104.175C86.7801 104.175 90.309 130.646 90.0633 130.646C89.8192 130.646 75.0969 130.858 75.0969 130.858Z" fill="white"/>
<path d="M78.9529 115.172C78.9529 115.172 79.4753 129.682 81.1743 132.623C82.8733 135.564 100.785 138.198 108.426 138.315L108.155 132.988C108.155 132.988 88.3162 128.458 87.9561 126.793C87.357 124.026 86.7473 114.258 86.7473 114.258L78.9529 115.172Z" fill="#FFD7BA"/>
<path d="M102.089 85.1745C103.812 88.4278 102.131 99.6021 102.131 99.6021L101.038 99.4764C101.024 99.1025 100.899 98.0218 100.899 98.0218L100.406 99.4038L96.157 98.9148L95.7657 81.6193C95.7657 81.6193 100.364 81.9211 102.089 85.1745Z" fill="#232323"/>
<path d="M99.8243 86.872C99.8243 86.872 102.213 95.4589 97.5841 96.6779L97.5126 102.704L91.0991 101.211L91.223 81.8154C91.223 81.8154 93.1282 82.063 93.1265 82.2197C93.1265 82.3767 99.8243 86.872 99.8243 86.872Z" fill="#FFD7BA"/>
<path d="M97.68 92.5981C97.6524 92.598 97.6283 92.579 97.6232 92.5511C97.6163 92.5195 97.6369 92.4885 97.6679 92.4817C98.0468 92.4031 98.2896 91.9381 98.3584 91.7864C97.8229 91.4958 97.4957 91.12 97.3907 90.6694C97.2168 89.9344 97.6852 89.2741 97.7058 89.2465C97.7248 89.2202 97.7609 89.2143 97.7867 89.2333C97.8126 89.2522 97.8195 89.2891 97.8005 89.3154C97.7971 89.3216 97.3425 89.9611 97.5061 90.643C97.6077 91.0721 97.9279 91.4303 98.4618 91.7077L98.5082 91.7322L98.4893 91.7814C98.4773 91.8102 98.2052 92.4904 97.692 92.597L97.68 92.5981Z" fill="#6A6A6A"/>
<path d="M97.5716 98.5178L97.5836 96.6778C97.5836 96.6778 94.4737 96.4749 92.5737 95.2603C92.5737 95.2603 95.1464 97.7671 97.5716 98.5178Z" fill="#6A6A6A"/>
<path d="M96.2119 90.0362C96.2102 90.2173 96.0633 90.3631 95.8823 90.3619C95.7012 90.3607 95.556 90.2132 95.5578 90.0321C95.5595 89.8513 95.7064 89.7054 95.8874 89.7066C96.0684 89.7078 96.2136 89.8556 96.2119 90.0362Z" fill="#232323"/>
<path d="M99.5256 90.1639C99.5239 90.3449 99.377 90.4908 99.1955 90.4894C99.0158 90.4883 98.8706 90.3406 98.8706 90.1598C98.8723 89.9787 99.0192 89.8332 99.2007 89.8342C99.3821 89.8354 99.5273 89.983 99.5256 90.1639Z" fill="#232323"/>
<path d="M95.1299 92.4271C95.1659 92.436 97.2643 93.3604 97.2643 93.3604C97.2643 93.3604 96.6008 94.0968 95.8208 93.7553C95.0391 93.4138 95.1299 92.4271 95.1299 92.4271Z" fill="#6A6A6A"/>
<path d="M97.6669 83.6852C97.6669 83.6852 96.7798 87.6728 93.0079 89.211C89.2394 90.7488 91.3798 95.8018 91.3798 95.8018L87.8262 90.4173C87.8262 90.4173 87.9895 83.2099 91.2233 81.8154C93.5752 80.8011 98.0606 81.4178 97.6669 83.6852Z" fill="#232323"/>
<path d="M94.8758 88.85C94.91 88.8658 94.9494 88.8652 94.9836 88.845C94.9922 88.8401 95.8412 88.3533 96.6766 88.6504C96.7365 88.672 96.8032 88.6403 96.8238 88.5797C96.846 88.5188 96.8152 88.4519 96.7536 88.4303C95.8138 88.0962 94.9049 88.6211 94.8655 88.6437C94.8107 88.6764 94.7919 88.7478 94.8245 88.8035C94.8381 88.8247 94.8553 88.8403 94.8758 88.85Z" fill="#6A6A6A"/>
<path d="M99.8946 89.334C99.9309 89.339 99.969 89.3264 99.9967 89.2969C100.04 89.2493 100.037 89.1754 99.9881 89.132C99.9569 89.102 99.1743 88.401 98.1857 88.5348C98.1217 88.5433 98.0766 88.6022 98.0853 88.6661C98.094 88.7299 98.1528 88.7748 98.2151 88.7661C99.0981 88.6468 99.8236 89.2978 99.8305 89.3046C99.8496 89.3212 99.8703 89.3309 99.8946 89.334Z" fill="#6A6A6A"/>
<path d="M97.384 85.223L95.8044 83.7117L96.9758 85.4644L97.384 85.223Z" fill="#FFD7BA"/>
<path d="M86.8494 86.2575C87.7788 82.1941 92.2863 81.4917 92.2863 81.4917L92.0354 89.454C92.0354 89.454 91.1515 92.9131 91.4983 98.0815L91.5993 99.0563C91.5993 99.0563 89.9762 98.9425 88.1257 98.5525C87.9994 97.7906 87.7889 96.5516 87.7889 96.5516L87.2771 98.3568C86.8662 98.2533 86.4554 98.1359 86.058 98.0024C86.058 98.0024 86.095 89.5605 86.8494 86.2575Z" fill="#232323"/>
<path d="M92.601 90.8776C92.5943 91.8919 91.7666 92.7092 90.7534 92.7026C89.7386 92.6962 88.9227 91.8685 88.9278 90.8542C88.9345 89.8395 89.7622 89.0224 90.777 89.029C91.7919 89.0354 92.6078 89.8629 92.601 90.8776Z" fill="#FFD7BA"/>
<path d="M90.6213 91.9982C90.237 91.9957 89.9802 91.7045 89.898 91.4143C89.8007 91.0713 89.9181 90.7392 90.1967 90.5682C90.5944 90.3247 90.9535 90.4709 91.1482 90.5952C91.071 90.3992 90.9519 90.2554 90.7924 90.1666C90.435 89.9668 89.9886 90.1084 89.9852 90.1097C89.9534 90.1198 89.9198 90.1029 89.9097 90.0721C89.9013 90.0411 89.9181 90.008 89.9483 89.9978C89.9685 89.9911 90.4467 89.8391 90.8495 90.0639C91.0828 90.1937 91.2405 90.4215 91.3177 90.7411L91.368 90.9458L91.2204 90.7963C91.2002 90.778 90.7706 90.3549 90.2588 90.6686C89.9752 90.8417 89.9483 91.1611 90.0104 91.382C90.0775 91.6137 90.2806 91.8824 90.6313 91.8805C90.6649 91.8799 90.6918 91.9062 90.6918 91.9388C90.6918 91.9715 90.6649 91.9978 90.633 91.9982H90.6213Z" fill="#6A6A6A"/>
<path d="M89.8627 99.5206C89.8627 99.5206 89.9699 102.767 94.8074 103.557C99.645 104.348 98.739 100.793 98.739 100.793C98.739 100.793 96.4153 99.9451 89.8627 99.5206Z" fill="#FFD7BA"/>
<path d="M114.13 138.794C114.22 138.535 114.081 138.249 113.827 138.142L112.251 137.472C112.201 137.451 112.17 137.401 112.174 137.346C112.181 137.268 112.256 137.214 112.333 137.236L114.772 137.907C115.052 137.985 115.297 137.811 115.319 137.522C115.339 137.233 115.129 136.934 114.849 136.857L112.362 136.171C112.305 136.155 112.265 136.1 112.271 136.041L112.274 135.998C112.278 135.93 112.338 135.877 112.408 135.882L115.26 136.091C115.535 136.11 115.791 135.921 115.827 135.647C115.869 135.35 115.65 135.083 115.354 135.061L112.483 134.852C112.413 134.847 112.362 134.786 112.366 134.718L112.377 134.583C112.38 134.521 112.432 134.47 112.494 134.466L115.163 134.313C115.439 134.296 115.666 134.076 115.67 133.8C115.672 133.498 115.419 133.262 115.123 133.281C115.123 133.281 111.038 133.296 110.4 133.247L111.329 132.076C111.545 131.889 111.569 131.563 111.382 131.347C111.196 131.132 110.868 131.107 110.653 131.294L107.899 133.163C107.758 133.284 107.729 133.656 107.778 133.96C107.327 136.975 107.281 137.444 107.235 138.268L110.492 138.396C111.431 138.432 112.357 138.639 113.223 139.007L113.439 139.1C113.712 139.216 114.03 139.079 114.13 138.794Z" fill="#FFD7BA"/>
<path d="M87.9546 126.793L87.5541 116.372C87.8104 116.318 87.9546 116.284 87.9546 116.284L87.6609 99.4862C79.6709 99.0613 77.5635 103.539 77.4158 103.686L78.3467 116.284C78.3467 116.284 78.1972 131.34 81.0717 133.445C83.948 135.551 94.8927 137.333 107.233 138.76L107.954 131.979C107.954 131.979 89.3483 127.904 87.9546 126.793Z" fill="white"/>
<path d="M107.94 132.048C107.18 131.881 89.3016 127.956 87.9132 126.847L87.8883 126.828L87.8847 126.796L86.4874 106.397L86.6281 106.387L88.0254 126.755C89.5686 127.87 107.785 131.869 107.97 131.91L107.94 132.048Z" fill="#6A6A6A"/>
<path d="M93.704 136.981C86.8979 135.846 82.6342 134.676 81.0329 133.501C78.1605 131.4 77.954 112.599 77.9456 111.799L78.0877 111.798C78.0894 111.993 78.301 131.326 81.1142 133.388C82.7002 134.548 86.9436 135.709 93.7277 136.841L93.704 136.981Z" fill="#6A6A6A"/>
<path d="M78.1733 118.252L77.0212 116.438L77.1395 116.362L78.2916 118.176L78.1733 118.252Z" fill="#6A6A6A"/>
<path d="M103.489 130.992C103.489 130.922 103.459 123.912 103.489 119.108C103.519 114.313 102.552 108.659 102.542 108.603L102.68 108.579C102.691 108.635 103.661 114.301 103.629 119.11C103.599 123.912 103.629 130.921 103.631 130.992H103.489Z" fill="#6A6A6A"/>
<path d="M103.369 185.208L103.227 185.203C103.337 182.275 103.46 138.755 103.462 138.315H103.604C103.602 138.755 103.479 182.278 103.369 185.208Z" fill="#6A6A6A"/>
<path d="M175.826 230.847L167.908 231L167.796 220.558L175.681 219.179L175.826 230.847Z" fill="#FFD7BA"/>
<path d="M167.716 232.953H174.555L177.328 229.932L182.398 232.953H183.492C183.867 232.953 184.212 233.208 184.284 233.577C184.378 234.074 184 234.51 183.519 234.51H167.619C167.502 234.51 167.406 234.415 167.406 234.297V233.262C167.406 233.091 167.545 232.953 167.716 232.953Z" fill="white"/>
<path d="M170.683 229.395C170.683 229.395 173.334 231.277 175.672 229L181.48 231.576C181.48 231.576 183.071 232.108 183.502 232.962H167.777V230.154C167.777 230.154 168.928 228.604 170.683 229.395Z" fill="#6A6A6A"/>
<path d="M167.952 229.099H167.836V226.305H167.952V229.099Z" fill="#232323"/>
<path d="M173.52 226.201L173.537 226.317C173.533 226.317 173.4 226.336 173.177 226.336C172.669 226.336 171.7 226.237 170.766 225.595L170.834 225.498C172.136 226.396 173.507 226.204 173.52 226.201Z" fill="#232323"/>
<path d="M162.419 230.847L154.502 231L154.388 220.558L162.276 219.179L162.419 230.847Z" fill="#FFD7BA"/>
<path d="M154.31 232.953H161.148L163.919 229.932L168.991 232.953H170.083C170.46 232.953 170.805 233.208 170.876 233.577C170.972 234.074 170.592 234.51 170.113 234.51H154.212C154.093 234.51 154 234.415 154 234.297V233.262C154 233.091 154.139 232.953 154.31 232.953Z" fill="white"/>
<path d="M157.276 229.394C157.276 229.394 159.93 231.277 162.267 229L168.072 231.576C168.072 231.576 169.665 232.108 170.095 232.962H154.372V230.154C154.372 230.154 155.522 228.604 157.276 229.394Z" fill="#6A6A6A"/>
<path d="M154.546 229.099H154.428V226.306H154.546V229.099Z" fill="#232323"/>
<path d="M160.112 226.201L160.131 226.317C160.127 226.317 159.992 226.336 159.77 226.336C159.262 226.336 158.293 226.237 157.361 225.595L157.426 225.498C158.73 226.396 160.1 226.204 160.112 226.201Z" fill="#232323"/>
<path d="M168.762 227.898C169.952 228.404 170.27 229.058 170.283 229.085L170.179 229.135C170.174 229.129 169.861 228.493 168.717 228.005C167.547 227.507 162.412 225.228 162.36 225.205L162.407 225.098C162.459 225.121 167.595 227.4 168.762 227.898Z" fill="#232323"/>
<path d="M166.164 148.399C166.186 148.1 166.446 147.875 166.746 147.897C167.044 147.919 167.269 148.18 167.247 148.479L167.424 150.036C167.936 149.599 170.958 146.561 170.958 146.561C171.166 146.328 171.529 146.317 171.75 146.542C171.951 146.747 171.947 147.081 171.754 147.297L169.886 149.39C169.84 149.439 169.84 149.514 169.884 149.564L169.975 149.671C170.024 149.725 170.107 149.732 170.161 149.684L172.45 147.712C172.686 147.509 173.047 147.544 173.237 147.797C173.41 148.027 173.362 148.358 173.143 148.546L170.868 150.507C170.816 150.553 170.809 150.637 170.857 150.692L170.886 150.726C170.925 150.773 170.995 150.785 171.05 150.754L173.404 149.421C173.668 149.27 174.049 149.336 174.246 149.567C174.445 149.798 174.393 150.108 174.126 150.258L171.818 151.566C171.745 151.607 171.728 151.704 171.783 151.766C171.82 151.809 171.879 151.824 171.931 151.802L173.598 151.132C173.865 151.025 174.183 151.133 174.307 151.393C174.443 151.678 174.309 152.016 174.021 152.132L173.791 152.224C172.874 152.592 172.034 153.124 171.308 153.794L168.794 156.113C168.219 155.466 167.906 155.084 166.007 152.509C165.744 152.319 165.49 152.021 165.506 151.827L166.164 148.399Z" fill="#FFD7BA"/>
<path d="M170.306 157.496L154.176 173.814L149.378 174.524L147.459 165.009L164.296 150.662C168.292 152.475 170.306 157.496 170.306 157.496Z" fill="white"/>
<path d="M164.272 150.482L164.36 150.525C167.501 151.994 169.363 155.352 169.382 155.387C169.423 155.461 169.395 155.554 169.322 155.595C169.248 155.635 169.153 155.608 169.114 155.534C169.095 155.501 167.313 152.291 164.319 150.844L150.392 162.71C150.364 162.735 150.329 162.747 150.292 162.747C150.251 162.747 150.206 162.729 150.178 162.693C150.122 162.628 150.131 162.532 150.193 162.478L164.272 150.482Z" fill="#232323"/>
<path d="M148.49 130.91C147.146 129.724 144.305 128.536 145.583 125.657C145.583 125.657 147.37 122.67 144.09 119.578C140.807 116.486 139.662 120.907 138.212 121.152C136.759 121.397 134.293 120.58 133.038 123.081C131.782 125.581 132.274 127.762 131.078 128.734C129.082 130.357 124.232 133.831 126.218 141.341C127.521 146.273 132.894 152.448 132.894 152.448C132.894 152.448 148.546 144.627 150.392 139.897C152.238 135.167 150.675 132.84 148.49 130.91Z" fill="#34498B"/>
<path d="M135.414 126.112L134.945 140.131L140.977 140.332L141.117 136.059C142.463 136.079 143.05 135.292 143.05 135.292C144.249 133.817 143.458 126.954 143.458 126.954L135.414 126.112Z" fill="#FFD7BA"/>
<path d="M141.197 130.419C141.062 129.778 141.501 129.192 141.505 129.185C141.525 129.162 141.519 129.127 141.495 129.109C141.471 129.09 141.438 129.095 141.42 129.12C141.4 129.144 140.944 129.75 141.088 130.441C141.177 130.864 141.471 131.223 141.965 131.508C141.895 131.649 141.658 132.077 141.302 132.141C141.273 132.147 141.253 132.175 141.259 132.204C141.263 132.23 141.284 132.25 141.31 132.25H141.322C141.804 132.162 142.074 131.534 142.086 131.507L142.106 131.462L142.064 131.438C141.573 131.165 141.28 130.823 141.197 130.419Z" fill="#6A6A6A"/>
<path d="M136.473 134.608C136.473 134.608 138.816 137.015 141.061 137.777L141.118 136.059C141.118 136.059 138.219 135.791 136.473 134.608Z" fill="#6A6A6A"/>
<path d="M140.691 128.725C139.437 127.645 137.983 129.038 137.967 129.053C137.923 129.095 137.923 129.165 137.965 129.208C137.987 129.229 138.012 129.241 138.04 129.241C138.068 129.242 138.098 129.232 138.119 129.21C138.175 129.158 139.447 127.944 140.548 128.891C140.594 128.931 140.663 128.926 140.703 128.88C140.742 128.835 140.736 128.765 140.691 128.725Z" fill="#6A6A6A"/>
<path d="M141.801 128.934C141.753 128.972 141.745 129.041 141.785 129.088C141.805 129.113 141.837 129.128 141.867 129.129C141.891 129.13 141.917 129.122 141.939 129.104C141.949 129.097 142.84 128.385 143.303 128.81C143.349 128.85 143.417 128.848 143.459 128.803C143.499 128.759 143.497 128.689 143.451 128.648C142.85 128.095 141.845 128.899 141.801 128.934Z" fill="#6A6A6A"/>
<path d="M142.801 129.706C142.631 129.701 142.49 129.832 142.486 130.002C142.48 130.171 142.611 130.313 142.779 130.318C142.951 130.323 143.09 130.192 143.096 130.022C143.102 129.853 142.968 129.711 142.801 129.706Z" fill="#232323"/>
<path d="M139.757 129.558C139.589 129.553 139.447 129.686 139.443 129.855C139.435 130.023 139.569 130.165 139.737 130.171C139.905 130.176 140.048 130.044 140.053 129.874C140.059 129.705 139.927 129.565 139.757 129.558Z" fill="#232323"/>
<path d="M134.79 129.338C133.844 129.307 133.05 130.05 133.019 130.998C132.985 131.945 133.728 132.739 134.676 132.77C135.625 132.802 136.418 132.06 136.45 131.112C136.481 130.164 135.738 129.371 134.79 129.338Z" fill="#FFD7BA"/>
<path d="M134.832 130.309C134.46 130.088 134.01 130.218 133.991 130.223C133.961 130.232 133.946 130.263 133.954 130.292C133.963 130.321 133.993 130.338 134.022 130.329C134.026 130.328 134.444 130.207 134.776 130.403C134.922 130.49 135.031 130.627 135.097 130.813C134.918 130.691 134.587 130.546 134.209 130.764C133.944 130.916 133.825 131.222 133.909 131.546C133.979 131.819 134.211 132.098 134.571 132.109H134.581C134.612 132.111 134.635 132.086 134.635 132.057C134.637 132.026 134.614 132 134.583 132C134.254 131.993 134.072 131.737 134.014 131.519C133.961 131.311 133.994 131.014 134.263 130.859C134.75 130.578 135.142 130.984 135.157 131.002L135.294 131.145L135.253 130.953C135.188 130.653 135.046 130.435 134.832 130.309Z" fill="#6A6A6A"/>
<path d="M139.502 123.887C135.978 123.478 135.414 126.112 135.414 126.112L139.42 127.064L143.2 126.926L143.459 126.953C143.459 126.953 143.026 124.295 139.502 123.887Z" fill="#FFD7BA"/>
<path d="M138.681 122.982C138.437 122.973 134.527 124.417 134.527 124.417C134.527 124.417 133.242 129.205 135.302 129.434C137.36 129.664 138.427 126.213 138.427 126.213C141.265 126.795 143.533 124.717 143.533 124.717L143.027 122.883C143.027 122.883 138.927 122.99 138.681 122.982Z" fill="#34498B"/>
<path d="M140.61 133.607C141.357 133.786 141.827 133.028 141.827 133.028C141.797 133.015 139.789 132.54 139.789 132.54C139.789 132.54 139.865 133.429 140.61 133.607Z" fill="#6A6A6A"/>
<path d="M175.156 175.725C176.817 177.856 180.203 210.151 178.8 222.04C178.8 222.04 170.185 222.633 166.068 221.634L165.065 188.928L146.551 183.329L137.047 168.726L147.738 172.639C147.738 172.639 171.786 171.405 175.156 175.725Z" fill="#222222"/>
<path d="M149.782 184.622L147.996 190.706C147.996 190.706 138.754 190.857 132.278 190.635C130.201 190.564 128.35 190.711 127.254 190.467C122.745 189.466 121.635 175.395 126.753 166.774C131.873 158.154 149.782 184.622 149.782 184.622Z" fill="#2F2E2E"/>
<path d="M165.656 176.961C166.313 179.582 167.721 209.895 166.317 221.783C166.317 221.783 157.057 222.314 152.938 221.315L151.828 190.572L147.833 190.711L138.148 173.67L140.243 171.405C140.243 171.405 165.001 174.34 165.656 176.961Z" fill="#2F2E2E"/>
<path d="M153.925 190.141L153.96 190.453C153.887 190.462 149.048 191 141.042 191C137.011 191 132.175 190.863 126.741 190.455L126.766 190.14C142.956 191.361 153.817 190.153 153.925 190.141Z" fill="#232323"/>
<path d="M151.282 149.777C151.599 150.216 152.909 164.139 153.106 166.261L152.615 167.032L146.52 174.514C145.344 172.725 144.86 171.695 144.86 171.695C144.86 171.695 150.936 149.301 151.282 149.777Z" fill="#6A6A6A"/>
<path d="M131.024 138.376C134.23 137.598 142.94 139.816 142.94 139.816C142.94 139.816 143.95 140.426 143.648 140.161C152.308 144.462 151.325 151.533 151.325 151.533L150.408 166.568L150.982 169.494C151.309 171.159 151.581 173.112 151.581 173.112C151.581 173.112 147.408 174.789 140.552 177.372C133.696 179.954 126.816 181.053 126.816 181.053C126.816 181.053 126.816 181.063 126.812 181.081C125.525 180.781 121.312 179.377 119.014 173.556C117.204 168.974 119.582 157.239 122.045 148.877C122.045 148.877 125.092 139.816 131.024 138.376Z" fill="white"/>
<path d="M142.996 139.672C143.051 139.694 148.693 141.917 150.865 147.368C150.879 147.403 152.138 151.04 152.564 159.066L152.72 160.641C152.728 160.726 152.667 160.801 152.582 160.809L152.568 160.81C152.49 160.81 152.422 160.751 152.416 160.671L152.26 159.089C151.836 151.108 150.589 147.506 150.577 147.475C148.459 142.158 142.94 139.98 142.885 139.958C142.806 139.929 142.767 139.84 142.798 139.761C142.827 139.681 142.917 139.643 142.996 139.672Z" fill="#232323"/>
<path d="M142.495 139.706C142.495 139.706 141.065 142.502 138.569 142.23C136.071 141.957 134.263 139.47 134.396 138.285C134.396 138.285 136.039 138.225 137.928 138.486C139.537 138.711 141.314 139.213 142.495 139.706Z" fill="#FFD7BA"/>
<path d="M121.991 149.06C122.075 149.085 122.122 149.172 122.097 149.256C119.65 157.67 117.411 169.068 119.16 173.498C120.554 177.027 122.669 178.878 124.198 179.809C125.856 180.818 127.202 180.996 127.215 180.999C127.301 181.009 127.363 181.087 127.354 181.174C127.341 181.262 127.263 181.322 127.177 181.312C127.12 181.305 125.761 181.127 124.05 180.088C123.763 179.916 123.459 179.712 123.142 179.472C121.71 178.388 120.037 176.578 118.867 173.614C117.088 169.109 119.333 157.629 121.794 149.168C121.818 149.085 121.906 149.036 121.991 149.06Z" fill="#232323"/>
<path d="M133.396 148.06C133.483 148.071 133.545 148.15 133.534 148.238C132.625 155.27 131.996 166.685 131.99 166.8C131.984 166.888 131.911 166.955 131.823 166.95C131.79 166.948 131.759 166.937 131.736 166.917C131.696 166.888 131.67 166.838 131.674 166.783C131.68 166.669 132.31 155.242 133.22 148.197C133.231 148.11 133.311 148.049 133.396 148.06Z" fill="#232323"/>
<path d="M133.074 138.962C133.147 138.955 133.211 139.008 133.218 139.079C133.222 139.121 133.917 143.176 139.319 143.987C139.392 143.999 139.44 144.065 139.428 144.137C139.418 144.208 139.351 144.258 139.278 144.246C139.153 144.228 139.029 144.208 138.909 144.184C133.645 143.216 132.958 139.141 132.956 139.1C132.952 139.028 133.003 138.968 133.074 138.962Z" fill="#232323"/>
<path d="M147.21 153.722C147.297 153.729 147.359 153.807 147.351 153.894C147.141 156.029 147.096 160.269 147.105 164.026C146.999 164.042 146.892 164.061 146.789 164.079C146.779 160.301 146.824 156.019 147.038 153.863C147.044 153.776 147.123 153.713 147.21 153.722Z" fill="#232323"/>
<path d="M150.932 162.897C151.059 162.625 151.383 162.51 151.654 162.637C151.923 162.765 152.04 163.088 151.913 163.359L151.52 164.878C152.155 164.652 156.064 162.897 156.064 162.897C156.341 162.756 156.684 162.874 156.811 163.164C156.926 163.429 156.803 163.738 156.544 163.871L154.049 165.155C153.99 165.186 153.963 165.255 153.986 165.317L154.032 165.45C154.059 165.518 154.135 165.554 154.201 165.53L157.045 164.508C157.337 164.402 157.661 164.564 157.749 164.868C157.83 165.146 157.665 165.437 157.394 165.534L154.569 166.55C154.502 166.574 154.464 166.65 154.489 166.718L154.504 166.761C154.525 166.819 154.586 166.855 154.648 166.846L157.325 166.445C157.626 166.4 157.955 166.597 158.06 166.884C158.162 167.17 157.999 167.44 157.699 167.485L155.074 167.879C154.993 167.892 154.943 167.975 154.97 168.054C154.989 168.107 155.041 168.142 155.095 168.14L156.893 168.112C157.181 168.108 157.438 168.322 157.461 168.61C157.486 168.926 157.241 169.191 156.928 169.196L156.682 169.2C155.694 169.216 154.719 169.412 153.8 169.776L150.623 171.041C150.318 170.231 150.161 169.762 149.311 166.677C149.134 166.406 149.002 166.038 149.086 165.861L150.932 162.897Z" fill="#FFD7BA"/>
<path d="M146.521 164.176L149.132 163.857C149.132 163.857 150.695 167.172 151.089 169.896C151.482 172.62 151.717 172.962 151.717 172.962L142.94 173.255L143.977 167.55L146.521 164.176Z" fill="white"/>
<path d="M129.701 167.525L132.104 166.67L149.305 163.543L149.348 163.647C149.37 163.702 151.611 169.221 151.722 173.108L151.724 173.206L151.634 173.242C151.539 173.279 142.268 176.995 140.05 177.686C140.023 177.693 139.994 177.693 139.968 177.686C139.925 177.673 139.89 177.639 139.876 177.594C139.851 177.521 139.894 177.442 139.968 177.419C142.057 176.768 150.47 173.407 151.439 173.019C151.308 169.484 149.438 164.628 149.13 163.857L132.163 166.942L129.793 167.788C129.722 167.813 129.642 167.775 129.617 167.702C129.59 167.63 129.627 167.55 129.701 167.525Z" fill="#232323"/>
<path d="M35.2795 146.187C35.2795 146.187 34.338 153.964 33.1584 157.5C31.9789 161.035 30.8614 164.412 31.734 172.898C32.6101 181.381 33.1515 182.089 33.3516 184.288C33.5516 186.488 33.2378 195.761 33.7103 197.291C34.1793 198.822 30.958 209.428 30.7235 213.984C30.6511 215.353 30.5235 216.914 30.4131 218.506H30.989C31.1787 216.566 31.5512 214.421 32.2169 212.178C34.7311 203.692 33.6309 202.596 37.8731 197.291C42.1153 191.987 42.4292 180.989 42.4292 180.989C42.4292 180.989 44.4709 168.498 42.4292 162.998C40.3874 157.5 40.2287 152 35.2795 146.187Z" fill="#34498B"/>
<path d="M22.0041 189.356C24.0074 185.113 21.0595 174.154 23.9136 169.268C26.7643 164.383 25.3038 156.713 24.6472 153.768C23.9906 150.822 24.7142 148.819 25.3038 145.713C25.8934 142.606 24.6472 138.096 24.6472 138.096C24.54 141.945 21.6122 147.209 19.4917 150.586C17.3679 153.964 13.3614 163.155 13.8337 167.319C14.306 171.483 14.0682 171.798 14.0682 171.798C12.5775 177.375 14.0682 178.946 13.5992 184.996C13.1269 191.045 16.9759 190.573 17.1334 194.422C17.2908 198.272 22.319 204.792 24.6472 209.428C25.8598 211.839 26.3054 215.524 26.4561 218.506H28.3287C27.6052 210.958 24.54 205.704 22.7109 201.493C20.3526 196.072 20.0009 193.597 22.0041 189.356Z" fill="#34498B"/>
<path d="M48.7993 177.674C48.3175 179.717 48.2162 181.127 47.0222 182.738C45.8316 184.349 42.8779 188.607 43.2899 192.34C43.7019 196.074 38.9606 201.929 39.0339 205.042C39.1038 208.157 38.224 209.563 35.3331 212.217C33.0882 214.278 29.8098 216.639 27.3379 221.024L28.4726 221.529C29.3664 219.76 30.6337 217.645 32.0198 216.508C34.6802 214.324 39.4913 211.724 40.6225 209.43C41.7537 207.137 43.9638 208.461 45.3079 204.663C46.6556 200.867 47.9823 200.315 48.5828 196.529C48.5828 196.529 48.5235 196.275 49.9305 193.876C51.341 191.477 51.3864 184.819 51.0128 182.199C50.6357 179.576 50.2761 175.593 51.2467 173.229C51.2467 173.229 49.2776 175.631 48.7993 177.674Z" fill="#34498B"/>
<path d="M19.3419 212.216C16.4528 209.563 15.57 208.157 15.6403 205.042C15.7138 201.929 10.9723 196.074 11.3836 192.34C11.7982 188.607 8.84226 184.349 7.65186 182.737C6.45812 181.127 6.35782 179.717 5.87631 177.674C5.39814 175.631 3.42529 173.229 3.42529 173.229C4.39834 175.593 4.04053 179.577 3.66602 182.199C3.28817 184.819 3.33499 191.477 4.74274 193.876C6.15049 196.275 6.09365 196.529 6.09365 196.529C6.6922 200.315 8.01969 200.867 9.3639 204.663C10.7115 208.461 12.9184 207.137 14.0519 209.431C15.1855 211.724 19.9939 214.324 22.6556 216.508C24.0433 217.645 25.3072 219.76 26.2 221.529L27.3369 221.024C24.8625 216.639 21.5889 214.278 19.3419 212.216Z" fill="#34498B"/>
<path d="M20.7212 213.271C20.2596 212.871 19.8281 212.495 19.4267 212.126C16.617 209.546 15.6938 208.162 15.7641 205.046C15.7975 203.591 14.8175 201.583 13.7806 199.458C12.5563 196.944 11.2853 194.344 11.506 192.354C11.874 189.036 9.66636 185.254 7.74974 182.665C6.79979 181.38 6.55227 180.216 6.23785 178.744C6.16426 178.397 6.08732 178.032 5.99701 177.645C5.51534 175.598 3.60207 173.251 3.52179 173.151L3 172.517L3.3144 173.275C4.04359 175.053 4.12389 178.131 3.54188 182.181C3.14049 184.983 3.25087 191.574 4.639 193.938C5.93012 196.141 5.97025 196.511 5.97025 196.526L6.09402 196.529L5.97359 196.502L6.21442 196.556C6.25791 196.365 5.75953 195.364 4.84972 193.814C3.48835 191.497 3.38801 184.987 3.78605 182.215C4.30785 178.567 4.30785 175.777 3.78605 173.904C4.39482 174.741 5.43173 176.315 5.75953 177.702C5.84985 178.086 5.92676 178.448 5.99701 178.794C6.31812 180.296 6.56898 181.483 7.55238 182.811C10.2617 186.473 11.5462 189.763 11.2619 192.327C11.0344 194.387 12.3189 197.02 13.5598 199.565C14.5834 201.663 15.55 203.645 15.5199 205.04C15.4463 208.251 16.3862 209.67 19.2595 212.307C19.6642 212.678 20.0991 213.056 20.5607 213.457C22.6077 215.241 25.1532 217.455 27.1635 220.967L26.257 221.369C25.4174 219.723 24.1397 217.566 22.7348 216.414L22.5776 216.603C23.9825 217.755 25.2636 219.947 26.0931 221.585L26.1433 221.689L27.5113 221.082L27.4444 220.964C25.4041 217.347 22.8051 215.087 20.7212 213.271Z" fill="#545454"/>
<path d="M23.9043 203.815C23.5156 202.984 23.1504 202.199 22.8221 201.444C20.5235 196.156 20.0979 193.676 22.115 189.408C23.0432 187.439 22.9226 184.085 22.7953 180.533C22.6445 176.313 22.4903 171.95 24.0183 169.331C26.0153 165.908 26.2733 160.517 24.7655 153.741C24.2394 151.377 24.6113 149.618 25.0838 147.393C25.1944 146.867 25.3116 146.323 25.4222 145.735C26.0119 142.638 24.7755 138.107 24.7655 138.062L24.5443 137.271L24.5242 138.092C24.4438 140.996 22.6679 145.294 19.3842 150.521C17.1191 154.126 13.2457 163.247 13.7081 167.334L13.956 167.305C13.497 163.273 17.3436 154.231 19.5919 150.652C22.6612 145.764 24.3801 141.811 24.7118 138.884C25.0335 140.296 25.6165 143.399 25.1809 145.69C25.0704 146.274 24.9565 146.817 24.8425 147.342C24.3667 149.598 23.9881 151.379 24.5242 153.795C26.022 160.509 25.7707 165.838 23.8038 169.207C22.2424 171.887 22.3998 176.287 22.5506 180.541C22.6746 184.063 22.7953 187.389 21.8906 189.303C19.8366 193.657 20.2621 196.177 22.5975 201.542C22.9259 202.299 23.2945 203.085 23.6798 203.919C25.4188 207.645 27.5801 212.277 28.1899 218.384H26.5715C26.4241 215.604 25.9885 211.827 24.7554 209.372L24.5343 209.483C25.7673 211.934 26.1929 215.746 26.3336 218.512L26.3369 218.63H28.4613L28.4479 218.494C27.8515 212.279 25.6635 207.586 23.9043 203.815Z" fill="#545454"/>
<path d="M19.8769 163.936C19.8769 163.936 18.307 171.006 19.4853 174.856C20.6636 178.705 22.0782 181.691 22.0005 187.505C21.9195 193.317 26.4772 195.517 26.3962 198.738C26.3186 201.959 27.3415 205.416 28.2058 208.009C28.7528 209.65 28.4489 214.218 28.351 218.506H29.6171C29.9344 215.355 30.2855 210.808 30.1674 208.794C30.0121 206.044 31.268 203.844 31.4267 199.053C31.582 194.26 32.6049 189.94 30.4813 183.89C28.3611 177.841 28.7528 170.614 19.8769 163.936Z" fill="#34498B"/>
<path d="M30.5235 204.827C30.227 206.24 29.9675 207.461 30.045 208.801C30.1596 210.773 29.826 215.167 29.5059 218.384H28.4781C28.495 217.538 28.5219 216.682 28.5523 215.842C28.6601 212.473 28.7612 209.293 28.3198 207.97C27.4403 205.332 26.4429 201.901 26.5204 198.741C26.5541 197.322 25.7285 196.118 24.7749 194.725C23.5113 192.88 22.0758 190.788 22.1196 187.506C22.1836 182.699 21.2401 179.833 20.236 176.797C20.027 176.159 19.808 175.499 19.6025 174.82C18.5511 171.393 19.7204 165.297 19.9563 164.151C26.6282 169.236 27.9693 174.735 29.1554 179.588C29.5295 181.104 29.8766 182.537 30.3652 183.931L30.5976 183.85C30.1124 182.467 29.7653 181.041 29.3947 179.53C28.1917 174.599 26.8236 169.01 19.9495 163.837L19.7979 163.724L19.7575 163.91C19.7406 163.981 18.194 171.057 19.3666 174.892C19.5755 175.574 19.7945 176.235 20.0035 176.875C20.9975 179.89 21.9376 182.737 21.8736 187.502C21.8298 190.863 23.2855 192.989 24.5727 194.865C25.5027 196.222 26.3047 197.395 26.2744 198.736C26.1969 201.933 27.201 205.392 28.0872 208.047C28.5152 209.327 28.4141 212.488 28.3063 215.834C28.2759 216.717 28.249 217.617 28.2288 218.504L28.2254 218.63H29.7249L29.7384 218.519C30.0652 215.285 30.4056 210.796 30.291 208.787C30.2169 207.479 30.4696 206.273 30.7628 204.877C31.093 203.319 31.467 201.551 31.5479 199.057L31.3019 199.048C31.221 201.522 30.8504 203.278 30.5235 204.827Z" fill="#545454"/>
<path d="M41.1004 158.24C40.031 154.326 38.9237 150.278 35.3741 146.108L35.1913 145.894L35.1568 146.172C35.1464 146.25 34.2012 153.978 33.0422 157.46C31.8555 161.021 30.7344 164.383 31.614 172.911L31.8555 172.885C30.9862 164.41 32.097 161.072 33.2767 157.539C34.3185 154.411 35.1843 147.906 35.3672 146.48C38.7408 150.536 39.8206 154.483 40.8624 158.304C41.2901 159.858 41.7282 161.463 42.3146 163.041C44.3223 168.448 42.3284 180.845 42.3077 180.986C42.3043 181.095 41.9455 192.003 37.775 197.214C34.8187 200.913 34.4289 202.643 33.6493 206.09C33.3009 207.628 32.8697 209.543 32.1005 212.143C31.5037 214.15 31.0932 216.25 30.8759 218.384H30.5447C30.5723 217.993 30.5999 217.604 30.6309 217.221C30.7137 216.072 30.7931 214.987 30.8448 213.99C30.9621 211.737 31.8245 207.94 32.5868 204.591C33.3837 201.085 34.0736 198.057 33.8252 197.255L33.5906 197.327C33.8183 198.065 33.1042 201.208 32.3488 204.537C31.583 207.895 30.7172 211.702 30.5999 213.977C30.5481 214.971 30.4688 216.055 30.386 217.203C30.3515 217.629 30.3205 218.063 30.2894 218.497L30.2791 218.63H31.1001L31.1104 218.519C31.3208 216.362 31.7313 214.24 32.335 212.213C33.1077 209.605 33.5389 207.686 33.8873 206.144C34.6842 202.628 35.0464 201.021 37.9682 197.368C42.187 192.093 42.5492 181.103 42.5492 181.009C42.5699 180.884 44.5741 168.423 42.5423 162.955C41.9627 161.388 41.5246 159.788 41.1004 158.24Z" fill="#545454"/>
<path d="M48.6773 177.646C48.5865 178.032 48.5096 178.397 48.4362 178.744C48.1219 180.217 47.8738 181.38 46.9237 182.665C45.0095 185.254 42.8018 189.036 43.1686 192.354L43.4131 192.327C43.1302 189.763 44.4122 186.473 47.1228 182.811C48.1044 181.483 48.3559 180.297 48.6773 178.795C48.7506 178.45 48.824 178.087 48.9148 177.702C49.2432 176.315 50.2806 174.741 50.8884 173.904C50.3644 175.777 50.3644 178.567 50.8884 182.216C51.2866 184.988 51.1853 191.497 49.823 193.814C48.9672 195.27 48.4782 196.241 48.4572 196.512C48.1114 198.714 47.5071 199.823 46.8084 201.106C46.3124 202.015 45.75 203.045 45.1911 204.622C44.4401 206.749 43.4341 207.222 42.4595 207.679C41.7155 208.028 41.0134 208.358 40.5103 209.375C39.7593 210.899 37.3421 212.569 35.0052 214.184C33.8734 214.966 32.8045 215.705 31.9417 216.414C30.5339 217.566 29.2555 219.723 28.4171 221.369L27.5089 220.967C29.521 217.455 32.0639 215.241 34.1144 213.456C34.5755 213.056 35.0122 212.678 35.4139 212.306L35.2497 212.126C34.848 212.495 34.4113 212.871 33.9537 213.271C31.8683 215.087 29.2695 217.347 27.2295 220.964L27.1631 221.082L28.5289 221.689L28.5813 221.585C29.4092 219.947 30.6946 217.753 32.0954 216.603C32.9512 215.901 34.0166 215.165 35.1449 214.386C37.5062 212.752 39.9514 211.065 40.7304 209.485C41.1985 208.544 41.8307 208.246 42.5643 207.902C43.5354 207.445 44.6357 206.928 45.4251 204.704C45.9771 203.146 46.5325 202.125 47.0215 201.224C47.7341 199.919 48.3454 198.793 48.7017 196.548L48.7052 196.525V196.517C48.7157 196.454 48.8309 195.995 50.0361 193.937C51.4228 191.576 51.5346 184.983 51.1329 182.181C50.5496 178.133 50.6299 175.053 51.36 173.275L51.6744 172.517L51.1539 173.152C51.0735 173.251 49.1593 175.598 48.6773 177.646Z" fill="#545454"/>
<path d="M17.5615 214.251C17.5615 214.251 17.9407 235.216 23.5565 234.724H27.9734H28.6839H33.0973C38.7132 235.216 39.0957 214.251 39.0957 214.251C33.7805 213.448 22.8733 213.448 17.5615 214.251Z" fill="white"/>
<path d="M19.6523 217.083L25.7893 223.562L25.946 223.414L19.8091 216.935L19.6523 217.083Z" fill="#545454"/>
<path d="M208.179 125.626C208.619 125.081 209.239 124.794 209.977 124.794H242.074C244.068 124.794 246.21 126.865 246.748 129.317L268.804 229.562C269.088 230.853 268.895 232.036 268.272 232.81C267.835 233.355 267.215 233.642 266.477 233.642H255.512H239.222H234.38H230.69L207.648 128.874C207.366 127.583 207.559 126.4 208.179 125.626ZM205.632 129.317L228.573 233.642H207.787C207.227 233.642 206.774 234.097 206.774 234.657C206.774 235.218 207.227 235.671 207.787 235.671H233.763C233.969 235.697 234.175 235.71 234.38 235.71H266.477C267.841 235.71 269.054 235.14 269.886 234.105C270.902 232.842 271.244 231.024 270.826 229.119L248.767 128.874C248.008 125.426 245.068 122.725 242.074 122.725H209.977C208.613 122.725 207.401 123.295 206.568 124.331C205.552 125.594 205.211 127.412 205.632 129.317Z" fill="#2F2E2E"/>
<path d="M203.079 213.353H237.678C240.365 213.353 242.798 210.524 243.116 207.034L253.964 88.3516C254.282 84.8624 252.363 82.0337 249.679 82.0337H215.08C212.393 82.0337 209.957 84.8624 209.638 88.3516L198.794 207.034C198.476 210.524 200.395 213.353 203.079 213.353Z" fill="#6A6A6A"/>
<path d="M237.678 213.353H237.307C237.317 213.353 237.326 213.353 237.335 213.353H237.678C240.362 213.353 242.8 210.524 243.116 207.034L248.22 151.182L243.119 207.036C242.8 210.524 240.362 213.353 237.678 213.353ZM249.823 133.668V133.667L250.287 128.576L249.935 132.437L249.847 133.378L249.823 133.668Z" fill="#6A6A6A"/>
<path d="M249.626 135.835L249.823 133.667V133.668L249.626 135.835Z" fill="#6A6A6A"/>
<path d="M251.345 117.007L251.388 116.53V116.534L251.345 117.007ZM251.509 115.179L251.549 114.771L251.531 114.971L251.509 115.179ZM251.912 82.7865C251.912 82.7856 251.908 82.7847 251.905 82.7834C251.908 82.7843 251.912 82.7856 251.912 82.7865ZM251.899 82.7767C251.893 82.7746 251.893 82.7728 251.89 82.7706C251.893 82.7728 251.893 82.7746 251.899 82.7767ZM251.887 82.7679C251.251 82.2997 250.498 82.0341 249.676 82.0341H215.077H215.013C215.035 82.0338 215.056 82.0338 215.077 82.0338H249.676C250.498 82.0338 251.251 82.2991 251.887 82.7679Z" fill="#6A6A6A"/>
<path d="M237.677 213.352H237.335C239.99 213.301 242.386 210.492 242.701 207.034L248.853 139.709L248.887 139.333L249.217 135.737L249.432 133.378L249.517 132.437L249.921 128.001L250.349 123.322L250.521 121.448L250.536 121.268L250.888 117.422L250.97 116.534V116.522L251.114 114.97L251.292 113.012L251.39 111.961V111.952L251.934 105.974L252.066 104.527L252.415 100.734L253.547 88.3508C253.654 87.1726 253.504 86.0685 253.161 85.1237C252.479 83.2734 251.038 82.034 249.26 82.034H215.078H249.676C250.499 82.034 251.249 82.2996 251.885 82.768C251.888 82.7689 251.888 82.7698 251.888 82.7708C251.891 82.7726 251.894 82.7747 251.897 82.7769C251.901 82.779 251.904 82.7812 251.907 82.7833C251.91 82.7845 251.91 82.7854 251.913 82.7867C252.638 83.3306 253.213 84.1411 253.574 85.1234C253.923 86.0679 254.07 87.172 253.963 88.3514L252.831 100.734L252.482 104.527L251.806 111.952V111.961L251.708 113.012L251.549 114.771L251.512 115.179L251.387 116.523V116.53L251.344 117.007L251.307 117.422L250.955 121.267L250.766 123.322L250.288 128.576L249.823 133.667L249.624 135.835L249.303 139.334L249.269 139.709L248.22 151.182L243.117 207.034C242.799 210.524 240.364 213.352 237.677 213.352Z" fill="#6A6A6A"/>
<path d="M214.337 89.5978C214.391 89.5978 214.446 89.5821 214.494 89.5494L219.05 86.4335C219.178 86.3473 219.209 86.1752 219.124 86.0488C219.035 85.9228 218.865 85.8903 218.739 85.9765L214.184 89.0927C214.056 89.1789 214.024 89.3511 214.11 89.4774C214.164 89.5557 214.252 89.5978 214.337 89.5978Z" fill="#777777"/>
<path d="M214.337 92.5104C214.391 92.5104 214.446 92.4947 214.494 92.462L219.05 89.3461C219.178 89.2596 219.209 89.0875 219.124 88.9614C219.035 88.8354 218.865 88.8029 218.739 88.8891L214.184 92.0053C214.056 92.0915 214.024 92.2637 214.11 92.39C214.164 92.4683 214.252 92.5104 214.337 92.5104Z" fill="#777777"/>
<path d="M253.547 88.3507L252.416 100.734L252.067 104.527L251.933 105.974L251.388 111.952V111.961L251.291 113.012L251.113 114.97L250.97 116.522V116.534L250.89 117.421L250.539 121.268L250.52 121.448L250.349 123.322L249.924 128.001L249.518 132.437L249.432 133.378L249.218 135.737L248.888 139.333L248.854 139.709L242.701 207.034C242.383 210.524 239.947 213.353 237.26 213.353H202.665C202.537 213.353 202.415 213.346 202.292 213.335C201.797 213.286 201.332 213.136 200.905 212.905C200.495 212.683 200.122 212.382 199.798 212.019C198.762 210.863 198.193 209.061 198.376 207.034L199.41 195.753L200.091 188.269L200.981 178.538L202.58 161.039L203.289 153.303L203.885 146.75L205.3 131.275L205.484 129.289L205.621 127.77L205.722 126.65L205.731 126.565L205.737 126.49L206.071 122.845L206.144 122.046V122.045L206.309 120.246L209.222 88.3507C209.543 84.8616 211.976 82.034 214.663 82.034H249.261C251.037 82.034 252.48 83.2733 253.158 85.1236C253.507 86.0681 253.654 87.1726 253.547 88.3507Z" fill="#DCE4E8"/>
<path opacity="0.7" d="M203.888 146.75L205.302 131.275L251.935 105.973L251.389 111.952V111.961L251.292 113.012L251.115 114.97L250.972 116.522V116.533L250.89 117.421L250.54 121.267L250.521 121.447L203.888 146.75Z" fill="white"/>
<g opacity="0.7">
<path d="M202.582 161.039L203.289 153.303L249.924 128.001L249.52 132.437L249.435 133.378L249.22 135.737L202.582 161.039Z" fill="white"/>
</g>
<path d="M199.479 212.748C198.182 211.327 197.556 209.211 197.765 206.94L208.61 88.2574C208.981 84.1877 211.824 81 215.08 81H249.678C251.036 81 252.315 81.5817 253.278 82.6377C254.575 84.0587 255.2 86.1757 254.992 88.4454L244.149 207.129C243.778 211.198 240.936 214.386 237.679 214.386H203.082C201.723 214.386 200.444 213.805 199.479 212.748ZM215.08 83.0676C212.955 83.0676 210.934 85.5305 210.671 88.4454L199.825 207.129C199.672 208.797 200.113 210.376 201.006 211.354C201.407 211.794 202.094 212.319 203.082 212.319H237.679C239.804 212.319 241.822 209.855 242.089 206.94L252.934 88.2571C253.087 86.5893 252.643 85.0098 251.751 84.0314C251.349 83.5917 250.665 83.0676 249.678 83.0676H215.08Z" fill="#DCE4E8"/>
<line y1="235.5" x2="279" y2="235.5" stroke="#5B5B5B"/>
</svg>
