<svg width="135" height="119" viewBox="0 0 135 119" fill="none" xmlns="http://www.w3.org/2000/svg">
<path d="M16.9646 83.4846C16.9646 83.0216 16.799 82.6048 16.4687 82.2344C15.9001 81.6124 15.1266 81.3015 14.1483 81.3015C13.5797 81.3015 13.044 81.4341 12.5417 81.6984C11.7352 82.1219 11.3318 82.7175 11.3318 83.4846C11.3318 83.617 11.3648 83.7558 11.4311 83.9014C11.6557 84.3381 12.4029 84.8012 13.6723 85.2905C15.2457 85.9125 16.1911 86.296 16.5085 86.4416C18.108 87.2486 18.9084 88.2475 18.9084 89.4385C18.895 90.2853 18.5379 91.0656 17.8371 91.7802C16.8719 92.7327 15.6423 93.2092 14.1483 93.2092C12.8523 93.2092 11.7352 92.8453 10.7965 92.1175C9.85739 91.3634 9.38818 90.4705 9.38818 89.4385H10.975C10.9879 89.9016 11.1862 90.3249 11.5699 90.7086C12.2177 91.317 13.0773 91.6216 14.1483 91.6216C14.8227 91.6216 15.4504 91.476 16.0324 91.1848C16.8917 90.7482 17.3216 90.166 17.3216 89.4385C17.3216 89.2929 17.2819 89.1474 17.2025 89.0017C16.9775 88.5522 16.2238 88.0758 14.9416 87.573C13.3812 86.9645 12.4491 86.5875 12.1452 86.4416C10.5452 85.6478 9.74531 84.6621 9.74531 83.4846C9.74531 82.6246 10.0627 81.8441 10.6973 81.1426C11.5699 80.1901 12.7202 79.7137 14.1483 79.7137C15.2853 79.7137 16.2769 80.0445 17.1233 80.7061C18.0753 81.4602 18.5513 82.3866 18.5513 83.4846H16.9646Z" fill="#FBFBFB"/>
<path d="M28.5472 93.2091H26.8215L27.2977 92.0975L32.4543 80.19L32.6725 79.7136H33.7038L33.922 80.19L39.0787 92.0975L39.5546 93.2091H37.8292L37.611 92.7327L33.1881 82.5121L28.7654 92.7327L28.5472 93.2091Z" fill="#FBFBFB"/>
<path d="M48.658 79.7137H50.2447V80.5077V91.6216H55.7979H56.5914V93.2092H55.7979H49.4513H48.658V92.4153V80.5077V79.7137Z" fill="#FBFBFB"/>
<path d="M68.055 89.9544C68.9142 91.0657 69.9852 91.6214 71.2679 91.6214C72.3785 91.6084 73.3504 91.1649 74.1834 90.2916C75.1483 89.2597 75.6311 87.9829 75.6311 86.4613C75.6311 85.1385 75.2476 83.9741 74.4808 82.9686C73.6212 81.8572 72.5502 81.3016 71.2679 81.3016C70.1572 81.3149 69.1854 81.7579 68.3524 82.631C67.3871 83.663 66.9045 84.9401 66.9045 86.4613C66.9045 87.7846 67.2879 88.949 68.055 89.9544ZM67.1624 81.5793C68.3127 80.3359 69.6811 79.7136 71.2679 79.7136C72.8545 79.727 74.2296 80.3555 75.3932 81.5991C76.6096 82.9223 77.2179 84.5431 77.2179 86.4613C77.2179 88.3799 76.603 90.0073 75.3734 91.3436C74.2231 92.5874 72.8545 93.2091 71.2679 93.2091C69.6811 93.1959 68.3059 92.5673 67.1426 91.3238C65.9258 90.0009 65.3179 88.3799 65.3179 86.4613C65.3179 84.5431 65.9327 82.9158 67.1624 81.5793Z" fill="#FBFBFB"/>
<path d="M89.4747 89.9544C90.3339 91.0657 91.4048 91.6214 92.6876 91.6214C93.7981 91.6084 94.7701 91.1649 95.603 90.2916C96.568 89.2597 97.0508 87.9829 97.0508 86.4613C97.0508 85.1385 96.6673 83.9741 95.9005 82.9686C95.0409 81.8572 93.9699 81.3016 92.6876 81.3016C91.5769 81.3149 90.605 81.7579 89.7721 82.631C88.8067 83.663 88.3242 84.9401 88.3242 86.4613C88.3242 87.7846 88.7076 88.949 89.4747 89.9544ZM88.582 81.5793C89.7324 80.3359 91.1008 79.7136 92.6876 79.7136C94.2742 79.727 95.6491 80.3555 96.8129 81.5991C98.0292 82.9223 98.6376 84.5431 98.6376 86.4613C98.6376 88.3799 98.0228 90.0073 96.7931 91.3436C95.6428 92.5874 94.2742 93.2091 92.6876 93.2091C91.1008 93.1959 89.7256 92.5673 88.5622 91.3238C87.3455 90.0009 86.7375 88.3799 86.7375 86.4613C86.7375 84.5431 87.3524 82.9158 88.582 81.5793Z" fill="#FBFBFB"/>
<path d="M110.537 93.2091H108.95V92.4151V80.5076V79.7136H110.259L110.458 80.19L115.099 90.4704L119.72 80.19L119.918 79.7136H121.227V80.5076L121.247 92.4151V93.2091H119.66V92.4151L119.641 84.1988L115.813 92.7327L115.614 93.2091H114.583L114.385 92.7327L110.537 84.1988V92.4151V93.2091Z" fill="#FBFBFB"/>
<path d="M23.0745 102.748L22.3408 104.42H23.8083L23.0745 102.748ZM23.291 102.358L24.6791 105.455H24.2637L23.9585 104.774H22.1906L21.8899 105.455H21.47L22.8579 102.358H23.291Z" fill="#FBFBFB"/>
<path d="M29.0717 103.995C29.1792 103.927 29.2567 103.842 29.3037 103.739C29.351 103.635 29.3745 103.525 29.3745 103.407C29.3745 103.289 29.351 103.178 29.3037 103.075C29.2567 102.972 29.1792 102.886 29.0717 102.819C28.9642 102.751 28.8382 102.717 28.6938 102.717H27.6682V104.097H28.6938C28.8382 104.097 28.9642 104.063 29.0717 103.995ZM27.6682 105.455H27.2881V102.359H28.6938C28.8883 102.359 29.0621 102.397 29.2154 102.474C29.3686 102.55 29.485 102.65 29.5646 102.774C29.6442 102.898 29.7024 103.035 29.7392 103.184C29.7761 103.333 29.7761 103.481 29.7392 103.63C29.7024 103.779 29.6442 103.915 29.5646 104.037C29.485 104.16 29.3686 104.26 29.2154 104.338C29.0621 104.416 28.8883 104.455 28.6938 104.455H27.6682V105.455Z" fill="#FBFBFB"/>
<path d="M34.2177 103.995C34.3252 103.927 34.4026 103.842 34.4497 103.739C34.4969 103.635 34.5205 103.525 34.5205 103.407C34.5205 103.289 34.4969 103.178 34.4497 103.075C34.4026 102.972 34.3252 102.886 34.2177 102.819C34.1102 102.751 33.9842 102.717 33.8398 102.717H32.8142V104.097H33.8398C33.9842 104.097 34.1102 104.063 34.2177 103.995ZM32.8142 105.455H32.4341V102.359H33.8398C34.0343 102.359 34.2081 102.397 34.3614 102.474C34.5146 102.55 34.631 102.65 34.7106 102.774C34.7902 102.898 34.8484 103.035 34.8852 103.184C34.9221 103.333 34.9221 103.481 34.8852 103.63C34.8484 103.779 34.7902 103.915 34.7106 104.037C34.631 104.16 34.5146 104.26 34.3614 104.338C34.2081 104.416 34.0343 104.455 33.8398 104.455H32.8142V105.455Z" fill="#FBFBFB"/>
<path d="M40.0246 103.312C39.9421 103.128 39.8087 102.973 39.6245 102.85C39.4404 102.726 39.2201 102.662 38.9638 102.659C38.5864 102.659 38.2933 102.78 38.084 103.02C37.8749 103.26 37.7702 103.559 37.7702 103.916C37.7702 104.258 37.8734 104.55 38.0797 104.791C38.2859 105.033 38.5807 105.154 38.9638 105.154C39.3438 105.154 39.6356 105.032 39.839 104.787C40.0423 104.542 40.144 104.252 40.144 103.916C40.147 103.697 40.1071 103.496 40.0246 103.312ZM40.1196 102.783C40.3952 103.099 40.5316 103.476 40.5285 103.916C40.5285 104.122 40.4953 104.32 40.4291 104.508C40.3628 104.697 40.267 104.867 40.1418 105.019C40.0164 105.171 39.8522 105.292 39.6489 105.382C39.4455 105.472 39.2157 105.517 38.9593 105.517C38.703 105.517 38.4723 105.472 38.2676 105.382C38.0628 105.292 37.8977 105.171 37.7724 105.019C37.6472 104.867 37.5514 104.698 37.485 104.511C37.4189 104.323 37.3857 104.125 37.3857 103.916C37.3857 103.456 37.5293 103.072 37.8166 102.766C38.1039 102.459 38.4864 102.306 38.9638 102.306C39.4588 102.308 39.8441 102.468 40.1196 102.783Z" fill="#FBFBFB"/>
<path d="M43.2791 102.358H43.6635V105.455H43.2791V102.358Z" fill="#FBFBFB"/>
<path d="M46.8775 102.359L48.7738 104.729V102.359H49.154V105.455H48.8887L46.9881 103.093V105.455H46.6079V102.359H46.8775Z" fill="#FBFBFB"/>
<path d="M51.7629 102.704V102.359H54.2559V102.704H53.1995V105.455H52.8194V102.704H51.7629Z" fill="#FBFBFB"/>
<path d="M58.4472 104.482H58.3677L57.2449 102.907V105.455H56.8647V102.359H57.3245L58.4119 103.951L59.4904 102.359H59.9502V105.455H59.5701V102.916L58.4472 104.482Z" fill="#FBFBFB"/>
<path d="M62.895 102.359H65.0698V102.712H63.2752V103.681H64.9947V104.039H63.2752V105.088H65.1404V105.455H62.895V102.359Z" fill="#FBFBFB"/>
<path d="M68.1648 102.359L70.0612 104.729V102.359H70.4413V105.455H70.1761L68.2754 103.093V105.455H67.8953V102.359H68.1648Z" fill="#FBFBFB"/>
<path d="M73.0503 102.704V102.359H75.5433V102.704H74.4869V105.455H74.1067V102.704H73.0503Z" fill="#FBFBFB"/>
<path d="M82.8558 102.741C82.6967 102.675 82.5257 102.64 82.3429 102.637C82.122 102.637 81.9312 102.682 81.7707 102.772C81.6099 102.862 81.5297 102.994 81.5297 103.168C81.5297 103.248 81.5504 103.317 81.5915 103.376C81.6328 103.435 81.6962 103.484 81.7817 103.522C81.8671 103.56 81.9533 103.59 82.0404 103.613C82.1272 103.635 82.2369 103.656 82.3696 103.677C82.5229 103.7 82.6466 103.722 82.7409 103.743C82.8353 103.764 82.9435 103.797 83.0658 103.843C83.188 103.888 83.2831 103.941 83.3508 104C83.4186 104.059 83.4768 104.139 83.5254 104.241C83.5741 104.342 83.5985 104.461 83.5985 104.597C83.5985 104.762 83.5609 104.906 83.4857 105.03C83.4107 105.154 83.3104 105.25 83.1851 105.318C83.0599 105.386 82.9265 105.436 82.7851 105.468C82.6436 105.501 82.4947 105.517 82.3386 105.517C82.044 105.517 81.7802 105.459 81.5474 105.342C81.3145 105.226 81.1422 105.045 81.0303 104.8L81.3485 104.614C81.4428 104.789 81.5819 104.923 81.7662 105.017C81.9504 105.111 82.1427 105.159 82.3429 105.159C82.4461 105.159 82.5457 105.15 82.6414 105.132C82.7372 105.114 82.83 105.085 82.9199 105.044C83.0099 105.002 83.082 104.943 83.1365 104.864C83.1911 104.786 83.2183 104.693 83.2183 104.583C83.2183 104.492 83.1954 104.413 83.1497 104.345C83.1041 104.277 83.0355 104.222 82.9441 104.181C82.8529 104.14 82.7608 104.107 82.668 104.084C82.5752 104.06 82.4609 104.038 82.3253 104.017C82.184 103.997 82.0653 103.975 81.9695 103.953C81.8737 103.931 81.7699 103.899 81.6579 103.856C81.546 103.813 81.456 103.763 81.3882 103.706C81.3204 103.648 81.2637 103.573 81.2181 103.48C81.1723 103.387 81.1495 103.28 81.1495 103.159C81.1465 103.006 81.1813 102.871 81.2535 102.755C81.3257 102.638 81.4213 102.547 81.5407 102.483C81.6601 102.418 81.7867 102.37 81.921 102.339C82.0549 102.308 82.1927 102.292 82.3342 102.292C82.5994 102.292 82.8294 102.332 83.0238 102.412C83.2183 102.491 83.3789 102.639 83.5056 102.854L83.2138 103.035C83.1342 102.906 83.015 102.808 82.8558 102.741Z" fill="#FBFBFB"/>
<path d="M85.9243 102.372V102.359H86.393L87.3213 103.827L88.2716 102.359H88.7401V102.372L87.5201 104.199V105.455H87.1223V104.199L85.9243 102.372Z" fill="#FBFBFB"/>
<path d="M92.8387 102.741C92.6796 102.675 92.5086 102.64 92.326 102.637C92.1049 102.637 91.9141 102.682 91.7536 102.772C91.5929 102.862 91.5126 102.994 91.5126 103.168C91.5126 103.248 91.5333 103.317 91.5744 103.376C91.6158 103.435 91.6791 103.484 91.7646 103.522C91.85 103.56 91.9362 103.59 92.0233 103.613C92.1102 103.635 92.2198 103.656 92.3525 103.677C92.5058 103.7 92.6295 103.722 92.7238 103.743C92.8182 103.764 92.9264 103.797 93.0487 103.843C93.171 103.888 93.266 103.941 93.3338 104C93.4017 104.059 93.4597 104.139 93.5083 104.241C93.5571 104.342 93.5814 104.461 93.5814 104.597C93.5814 104.762 93.5438 104.906 93.4686 105.03C93.3936 105.154 93.2933 105.25 93.1681 105.318C93.0428 105.386 92.9094 105.436 92.768 105.468C92.6265 105.501 92.4777 105.517 92.3215 105.517C92.0269 105.517 91.7631 105.459 91.5303 105.342C91.2976 105.226 91.1251 105.045 91.0132 104.8L91.3314 104.614C91.4257 104.789 91.5648 104.923 91.7491 105.017C91.9333 105.111 92.1256 105.159 92.326 105.159C92.429 105.159 92.5286 105.15 92.6244 105.132C92.7201 105.114 92.813 105.085 92.9028 105.044C92.9928 105.002 93.0649 104.943 93.1194 104.864C93.174 104.786 93.2012 104.693 93.2012 104.583C93.2012 104.492 93.1783 104.413 93.1326 104.345C93.087 104.277 93.0184 104.222 92.9271 104.181C92.8359 104.14 92.7437 104.107 92.6509 104.084C92.5581 104.06 92.4438 104.038 92.3082 104.017C92.1669 103.997 92.0482 103.975 91.9524 103.953C91.8566 103.931 91.7528 103.899 91.6408 103.856C91.5289 103.813 91.4389 103.763 91.3711 103.706C91.3034 103.648 91.2468 103.573 91.201 103.48C91.1552 103.387 91.1324 103.28 91.1324 103.159C91.1294 103.006 91.1642 102.871 91.2364 102.755C91.3086 102.638 91.4043 102.547 91.5237 102.483C91.643 102.418 91.7696 102.37 91.9039 102.339C92.0378 102.308 92.1756 102.292 92.3171 102.292C92.5823 102.292 92.8123 102.332 93.0068 102.412C93.2012 102.491 93.3618 102.639 93.4885 102.854L93.1968 103.035C93.1171 102.906 92.9979 102.808 92.8387 102.741Z" fill="#FBFBFB"/>
<path d="M95.978 102.704V102.359H98.4709V102.704H97.4146V105.455H97.0345V102.704H95.978Z" fill="#FBFBFB"/>
<path d="M101.08 102.359H103.255V102.712H101.46V103.681H103.179V104.039H101.46V105.088H103.325V105.455H101.08V102.359Z" fill="#FBFBFB"/>
<path d="M107.662 104.482H107.583L106.46 102.907V105.455H106.08V102.359H106.54L107.627 103.951L108.706 102.359H109.165V105.455H108.785V102.916L107.662 104.482Z" fill="#FBFBFB"/>
<path d="M70.8018 44.4389C71.1496 43.7863 71.3765 43.0712 71.4558 42.3259C71.4181 41.9552 71.3407 41.5845 71.2271 41.2174C71.2195 41.1928 71.2139 41.172 71.2045 41.1475L71.2026 41.1341L59.7523 44.891C59.3666 45.0177 59.0056 45.1804 58.6653 45.3735C57.0395 46.3079 55.9866 47.9631 55.7862 49.7809V49.7828C55.8277 50.1781 55.9129 50.5754 56.0414 50.9689L67.4916 47.212C68.97 46.7297 70.1212 45.7082 70.8018 44.4389ZM61.6257 39.4904V39.5036L73.0779 35.7469C73.4635 35.6183 73.8245 35.4574 74.1649 35.2627C75.7888 34.3319 76.8436 32.6748 77.044 30.857V30.8551C77.0024 30.4597 76.9173 30.0606 76.7868 29.669L65.3385 33.424C63.8601 33.9082 62.7089 34.9297 62.0283 36.1971C61.6805 36.8497 61.4536 37.5667 61.3743 38.3118V38.3138C61.412 38.6808 61.4896 39.0515 61.603 39.4204C61.6106 39.445 61.6162 39.4657 61.6257 39.4904ZM76.1385 39.3201C75.5336 39.0023 74.8908 38.7639 74.2254 38.607L85.188 35.4233L84.8854 34.3546C84.8684 34.296 84.8513 34.2411 84.8325 34.1863L84.8117 34.122C84.1274 32.0335 83.0877 30.1287 81.7454 28.4697C84.0309 30.3954 85.825 32.9605 86.825 36.0098C86.8458 36.0702 86.8665 36.1328 86.8855 36.1971L76.1385 39.3201ZM81.1292 52.6884C79.1631 55.242 76.4352 57.2547 73.1422 58.3349C70.1515 59.3147 67.0833 59.4017 64.2268 58.7397C64.4405 58.7472 64.6523 58.751 64.8659 58.751C66.726 58.751 68.5937 58.4559 70.4142 57.8582C73.8151 56.744 76.7623 54.6594 78.9382 51.8333C81.1349 48.9769 81.269 45.2164 79.2955 42.2067C82.5394 44.3406 83.961 49.0072 81.1292 52.6884ZM49.0809 46.1678C49.062 46.1054 49.0392 46.043 49.0204 45.9806L70.2629 39.8101C76.9608 37.8636 82.3088 45.6193 78.0515 51.1504C76.0855 53.7041 73.3577 55.7149 70.0645 56.795C61.3383 59.659 51.9411 54.9015 49.0809 46.1678ZM54.7767 29.4874C56.7427 26.9357 59.4725 24.923 62.7637 23.8428C71.4918 20.9789 80.889 25.7363 83.7492 34.47C83.7681 34.5324 83.7909 34.5949 83.8099 34.6592L62.5672 40.8277C55.8694 42.7724 50.5214 35.0185 54.7767 29.4874ZM90.3695 12.9999H42.4606C40.6118 12.9999 39.1145 14.4981 39.1145 16.3481V64.2896C39.1145 66.1398 40.6118 67.6379 42.4606 67.6379H90.3695C92.2184 67.6379 93.7156 66.1398 93.7156 64.2896V16.3481C93.7156 14.4981 92.2184 12.9999 90.3695 12.9999ZM76.7868 29.669L65.3385 33.424C63.8601 33.9082 62.7089 34.9297 62.0283 36.1971C61.6805 36.8497 61.4536 37.5667 61.3743 38.3118V38.3138C61.412 38.6808 61.4896 39.0515 61.603 39.4204C61.6106 39.445 61.6162 39.4657 61.6257 39.4904V39.5036L73.0779 35.7469C73.4635 35.6183 73.8245 35.4574 74.1649 35.2627C75.7888 34.3319 76.8436 32.6748 77.044 30.857V30.8551C77.0024 30.4597 76.9173 30.0606 76.7868 29.669ZM76.7868 29.669L65.3385 33.424C63.8601 33.9082 62.7089 34.9297 62.0283 36.1971C61.6805 36.8497 61.4536 37.5667 61.3743 38.3118V38.3138C61.412 38.6808 61.4896 39.0515 61.603 39.4204C61.6106 39.445 61.6162 39.4657 61.6257 39.4904V39.5036L73.0779 35.7469C73.4635 35.6183 73.8245 35.4574 74.1649 35.2627C75.7888 34.3319 76.8436 32.6748 77.044 30.857V30.8551C77.0024 30.4597 76.9173 30.0606 76.7868 29.669Z" fill="white"/>
<g opacity="0.5">
<path d="M81.1288 52.6889C79.1628 55.2424 76.4347 57.2546 73.1417 58.3348C70.1522 59.3156 67.0843 59.4022 64.2275 58.7405C64.4401 58.7475 64.6527 58.7517 64.8651 58.7517C66.7263 58.7517 68.5945 58.4565 70.4136 57.859C73.8143 56.7438 76.762 54.6604 78.9391 51.8325C81.1358 48.9768 81.27 45.2159 79.2956 42.2061C82.5397 44.3413 83.9617 49.0077 81.1288 52.6889Z" fill="white"/>
<path d="M86.8856 36.198L76.1383 39.3196C75.5327 39.002 74.891 38.7642 74.2253 38.6074L85.1881 35.4243L84.886 34.3538C84.8692 34.2965 84.851 34.2419 84.8328 34.186L84.8118 34.1216C84.1281 32.0339 83.0877 30.1284 81.7455 28.4702C84.0302 30.3956 85.8257 32.9603 86.8255 36.0092C86.845 36.0706 86.8674 36.1336 86.8856 36.198Z" fill="white"/>
</g>
<path d="M70.2808 42.6148C70.1912 43.0653 70.036 43.499 69.8165 43.909C69.2445 44.9766 68.2952 45.7714 67.1444 46.1491L56.9619 49.489C57.2291 48.1724 58.0512 47.0167 59.2174 46.3478C59.4998 46.187 59.7963 46.0554 60.0997 45.9546L70.2808 42.6148Z" fill="white"/>
<path d="M75.8684 31.1482C75.6014 32.4663 74.7791 33.6206 73.6101 34.2908C73.3347 34.4489 73.0382 34.5805 72.7307 34.6826L62.5496 38.0239C62.639 37.5719 62.7943 37.1382 63.0138 36.7282C63.5858 35.662 64.5352 34.8658 65.686 34.4895L75.8684 31.1482Z" fill="white"/>
</svg>
